0
SECTION
2
HEADER
9
$INSUNITS
70
1
0
ENDSEC
0
SECTION
2
TABLES
0
TABLE
2
LTYPE
0
LTYPE
72
65
70
64
2
CONTINUOUS
3
______
73
0
40
0
0
ENDTAB
0
TABLE
2
LAYER
0
ENDTAB
0
ENDSEC
0
SECTION
2
ENTITIES
0
LINE
8
front_outsideCutPath
10
1.25
20
0.361
11
2.413
21
0.361
0
LINE
8
front_outsideCutPath
10
2.413
20
0.361
11
2.413
21
0.605
0
LINE
8
front_outsideCutPath
10
2.413
20
0.605
11
2.323
21
0.605
0
LINE
8
front_outsideCutPath
10
2.323
20
0.605
11
2.323
21
0.745
0
LINE
8
front_outsideCutPath
10
2.323
20
0.745
11
2.413
21
0.745
0
LINE
8
front_outsideCutPath
10
2.413
20
0.745
11
2.413
21
0.885
0
LINE
8
front_outsideCutPath
10
2.413
20
0.885
11
2.587
21
0.885
0
LINE
8
front_outsideCutPath
10
2.587
20
0.885
11
2.587
21
0.745
0
LINE
8
front_outsideCutPath
10
2.587
20
0.745
11
2.677
21
0.745
0
LINE
8
front_outsideCutPath
10
2.677
20
0.745
11
2.677
21
0.605
0
LINE
8
front_outsideCutPath
10
2.677
20
0.605
11
2.587
21
0.605
0
LINE
8
front_outsideCutPath
10
2.587
20
0.605
11
2.587
21
0.361
0
LINE
8
front_outsideCutPath
10
2.587
20
0.361
11
3.75
21
0.361
0
LINE
8
front_outsideCutPath
10
3.75
20
0.361
11
3.75
21
0.125
0
LINE
8
front_outsideCutPath
10
3.75
20
0.125
11
6.25
21
0.125
0
LINE
8
front_outsideCutPath
10
6.25
20
0.125
11
6.25
21
0.361
0
LINE
8
front_outsideCutPath
10
6.25
20
0.361
11
7.413
21
0.361
0
LINE
8
front_outsideCutPath
10
7.413
20
0.361
11
7.413
21
0.605
0
LINE
8
front_outsideCutPath
10
7.413
20
0.605
11
7.323
21
0.605
0
LINE
8
front_outsideCutPath
10
7.323
20
0.605
11
7.323
21
0.745
0
LINE
8
front_outsideCutPath
10
7.323
20
0.745
11
7.413
21
0.745
0
LINE
8
front_outsideCutPath
10
7.413
20
0.745
11
7.413
21
0.885
0
LINE
8
front_outsideCutPath
10
7.413
20
0.885
11
7.587
21
0.885
0
LINE
8
front_outsideCutPath
10
7.587
20
0.885
11
7.587
21
0.745
0
LINE
8
front_outsideCutPath
10
7.587
20
0.745
11
7.677
21
0.745
0
LINE
8
front_outsideCutPath
10
7.677
20
0.745
11
7.677
21
0.605
0
LINE
8
front_outsideCutPath
10
7.677
20
0.605
11
7.587
21
0.605
0
LINE
8
front_outsideCutPath
10
7.587
20
0.605
11
7.587
21
0.361
0
LINE
8
front_outsideCutPath
10
7.587
20
0.361
11
8.75
21
0.361
0
LINE
8
front_outsideCutPath
10
8.75
20
0.361
11
8.75
21
0.125
0
LINE
8
front_outsideCutPath
10
8.75
20
0.125
11
10
21
0.125
0
LINE
8
front_outsideCutPath
10
10
20
0.125
11
10
21
0.745
0
LINE
8
front_outsideCutPath
10
10
20
0.745
11
9.764
21
0.745
0
LINE
8
front_outsideCutPath
10
9.764
20
0.745
11
9.764
21
1.038
0
LINE
8
front_outsideCutPath
10
9.764
20
1.038
11
9.52
21
1.038
0
LINE
8
front_outsideCutPath
10
9.52
20
1.038
11
9.52
21
0.948
0
LINE
8
front_outsideCutPath
10
9.52
20
0.948
11
9.38
21
0.948
0
LINE
8
front_outsideCutPath
10
9.38
20
0.948
11
9.38
21
1.038
0
LINE
8
front_outsideCutPath
10
9.38
20
1.038
11
9.24
21
1.038
0
LINE
8
front_outsideCutPath
10
9.24
20
1.038
11
9.24
21
1.212
0
LINE
8
front_outsideCutPath
10
9.24
20
1.212
11
9.38
21
1.212
0
LINE
8
front_outsideCutPath
10
9.38
20
1.212
11
9.38
21
1.302
0
LINE
8
front_outsideCutPath
10
9.38
20
1.302
11
9.52
21
1.302
0
LINE
8
front_outsideCutPath
10
9.52
20
1.302
11
9.52
21
1.212
0
LINE
8
front_outsideCutPath
10
9.52
20
1.212
11
9.764
21
1.212
0
LINE
8
front_outsideCutPath
10
9.764
20
1.212
11
9.764
21
1.505
0
LINE
8
front_outsideCutPath
10
9.764
20
1.505
11
10
21
1.505
0
LINE
8
front_outsideCutPath
10
10
20
1.505
11
10
21
2.125
0
LINE
8
front_outsideCutPath
10
10
20
2.125
11
8.75
21
2.125
0
LINE
8
front_outsideCutPath
10
8.75
20
2.125
11
8.75
21
1.889
0
LINE
8
front_outsideCutPath
10
8.75
20
1.889
11
7.587
21
1.889
0
LINE
8
front_outsideCutPath
10
7.587
20
1.889
11
7.587
21
1.645
0
LINE
8
front_outsideCutPath
10
7.587
20
1.645
11
7.677
21
1.645
0
LINE
8
front_outsideCutPath
10
7.677
20
1.645
11
7.677
21
1.505
0
LINE
8
front_outsideCutPath
10
7.677
20
1.505
11
7.587
21
1.505
0
LINE
8
front_outsideCutPath
10
7.587
20
1.505
11
7.587
21
1.365
0
LINE
8
front_outsideCutPath
10
7.587
20
1.365
11
7.413
21
1.365
0
LINE
8
front_outsideCutPath
10
7.413
20
1.365
11
7.413
21
1.505
0
LINE
8
front_outsideCutPath
10
7.413
20
1.505
11
7.323
21
1.505
0
LINE
8
front_outsideCutPath
10
7.323
20
1.505
11
7.323
21
1.645
0
LINE
8
front_outsideCutPath
10
7.323
20
1.645
11
7.413
21
1.645
0
LINE
8
front_outsideCutPath
10
7.413
20
1.645
11
7.413
21
1.889
0
LINE
8
front_outsideCutPath
10
7.413
20
1.889
11
6.25
21
1.889
0
LINE
8
front_outsideCutPath
10
6.25
20
1.889
11
6.25
21
2.125
0
LINE
8
front_outsideCutPath
10
6.25
20
2.125
11
3.75
21
2.125
0
LINE
8
front_outsideCutPath
10
3.75
20
2.125
11
3.75
21
1.889
0
LINE
8
front_outsideCutPath
10
3.75
20
1.889
11
2.587
21
1.889
0
LINE
8
front_outsideCutPath
10
2.587
20
1.889
11
2.587
21
1.645
0
LINE
8
front_outsideCutPath
10
2.587
20
1.645
11
2.677
21
1.645
0
LINE
8
front_outsideCutPath
10
2.677
20
1.645
11
2.677
21
1.505
0
LINE
8
front_outsideCutPath
10
2.677
20
1.505
11
2.587
21
1.505
0
LINE
8
front_outsideCutPath
10
2.587
20
1.505
11
2.587
21
1.365
0
LINE
8
front_outsideCutPath
10
2.587
20
1.365
11
2.413
21
1.365
0
LINE
8
front_outsideCutPath
10
2.413
20
1.365
11
2.413
21
1.505
0
LINE
8
front_outsideCutPath
10
2.413
20
1.505
11
2.323
21
1.505
0
LINE
8
front_outsideCutPath
10
2.323
20
1.505
11
2.323
21
1.645
0
LINE
8
front_outsideCutPath
10
2.323
20
1.645
11
2.413
21
1.645
0
LINE
8
front_outsideCutPath
10
2.413
20
1.645
11
2.413
21
1.889
0
LINE
8
front_outsideCutPath
10
2.413
20
1.889
11
1.25
21
1.889
0
LINE
8
front_outsideCutPath
10
1.25
20
1.889
11
1.25
21
2.125
0
LINE
8
front_outsideCutPath
10
1.25
20
2.125
11
0
21
2.125
0
LINE
8
front_outsideCutPath
10
0
20
2.125
11
0
21
1.505
0
LINE
8
front_outsideCutPath
10
0
20
1.505
11
0.236
21
1.505
0
LINE
8
front_outsideCutPath
10
0.236
20
1.505
11
0.236
21
1.212
0
LINE
8
front_outsideCutPath
10
0.236
20
1.212
11
0.48
21
1.212
0
LINE
8
front_outsideCutPath
10
0.48
20
1.212
11
0.48
21
1.302
0
LINE
8
front_outsideCutPath
10
0.48
20
1.302
11
0.62
21
1.302
0
LINE
8
front_outsideCutPath
10
0.62
20
1.302
11
0.62
21
1.212
0
LINE
8
front_outsideCutPath
10
0.62
20
1.212
11
0.76
21
1.212
0
LINE
8
front_outsideCutPath
10
0.76
20
1.212
11
0.76
21
1.038
0
LINE
8
front_outsideCutPath
10
0.76
20
1.038
11
0.62
21
1.038
0
LINE
8
front_outsideCutPath
10
0.62
20
1.038
11
0.62
21
0.948
0
LINE
8
front_outsideCutPath
10
0.62
20
0.948
11
0.48
21
0.948
0
LINE
8
front_outsideCutPath
10
0.48
20
0.948
11
0.48
21
1.038
0
LINE
8
front_outsideCutPath
10
0.48
20
1.038
11
0.236
21
1.038
0
LINE
8
front_outsideCutPath
10
0.236
20
1.038
11
0.236
21
0.745
0
LINE
8
front_outsideCutPath
10
0.236
20
0.745
11
0
21
0.745
0
LINE
8
front_outsideCutPath
10
0
20
0.745
11
0
21
0.125
0
LINE
8
front_outsideCutPath
10
0
20
0.125
11
1.25
21
0.125
0
LINE
8
front_outsideCutPath
10
1.25
20
0.125
11
1.25
21
0.361
0
LINE
8
left_outsideCutPath
10
11.0156
20
0.361
11
11.8193
21
0.361
0
LINE
8
left_outsideCutPath
10
11.8193
20
0.361
11
11.8193
21
0.605
0
LINE
8
left_outsideCutPath
10
11.8193
20
0.605
11
11.7293
21
0.605
0
LINE
8
left_outsideCutPath
10
11.7293
20
0.605
11
11.7293
21
0.745
0
LINE
8
left_outsideCutPath
10
11.7293
20
0.745
11
11.8193
21
0.745
0
LINE
8
left_outsideCutPath
10
11.8193
20
0.745
11
11.8193
21
0.885
0
LINE
8
left_outsideCutPath
10
11.8193
20
0.885
11
11.9933
21
0.885
0
LINE
8
left_outsideCutPath
10
11.9933
20
0.885
11
11.9933
21
0.745
0
LINE
8
left_outsideCutPath
10
11.9933
20
0.745
11
12.0833
21
0.745
0
LINE
8
left_outsideCutPath
10
12.0833
20
0.745
11
12.0833
21
0.605
0
LINE
8
left_outsideCutPath
10
12.0833
20
0.605
11
11.9933
21
0.605
0
LINE
8
left_outsideCutPath
10
11.9933
20
0.605
11
11.9933
21
0.361
0
LINE
8
left_outsideCutPath
10
11.9933
20
0.361
11
12.7969
21
0.361
0
LINE
8
left_outsideCutPath
10
12.7969
20
0.361
11
12.7969
21
0.125
0
LINE
8
left_outsideCutPath
10
12.7969
20
0.125
11
14.5781
21
0.125
0
LINE
8
left_outsideCutPath
10
14.5781
20
0.125
11
14.5781
21
0.361
0
LINE
8
left_outsideCutPath
10
14.5781
20
0.361
11
15.3818
21
0.361
0
LINE
8
left_outsideCutPath
10
15.3818
20
0.361
11
15.3818
21
0.605
0
LINE
8
left_outsideCutPath
10
15.3818
20
0.605
11
15.2918
21
0.605
0
LINE
8
left_outsideCutPath
10
15.2918
20
0.605
11
15.2918
21
0.745
0
LINE
8
left_outsideCutPath
10
15.2918
20
0.745
11
15.3818
21
0.745
0
LINE
8
left_outsideCutPath
10
15.3818
20
0.745
11
15.3818
21
0.885
0
LINE
8
left_outsideCutPath
10
15.3818
20
0.885
11
15.5558
21
0.885
0
LINE
8
left_outsideCutPath
10
15.5558
20
0.885
11
15.5558
21
0.745
0
LINE
8
left_outsideCutPath
10
15.5558
20
0.745
11
15.6458
21
0.745
0
LINE
8
left_outsideCutPath
10
15.6458
20
0.745
11
15.6458
21
0.605
0
LINE
8
left_outsideCutPath
10
15.6458
20
0.605
11
15.5558
21
0.605
0
LINE
8
left_outsideCutPath
10
15.5558
20
0.605
11
15.5558
21
0.361
0
LINE
8
left_outsideCutPath
10
15.5558
20
0.361
11
16.3594
21
0.361
0
LINE
8
left_outsideCutPath
10
16.3594
20
0.361
11
16.3594
21
0.125
0
LINE
8
left_outsideCutPath
10
16.3594
20
0.125
11
17.014
21
0.125
0
LINE
8
left_outsideCutPath
10
17.014
20
0.125
11
17.014
21
0.745
0
LINE
8
left_outsideCutPath
10
17.014
20
0.745
11
17.25
21
0.745
0
LINE
8
left_outsideCutPath
10
17.25
20
0.745
11
17.25
21
1.038
0
LINE
8
left_outsideCutPath
10
17.25
20
1.038
11
17.076
21
1.038
0
LINE
8
left_outsideCutPath
10
17.076
20
1.038
11
17.076
21
1.212
0
LINE
8
left_outsideCutPath
10
17.076
20
1.212
11
17.25
21
1.212
0
LINE
8
left_outsideCutPath
10
17.25
20
1.212
11
17.25
21
1.505
0
LINE
8
left_outsideCutPath
10
17.25
20
1.505
11
17.014
21
1.505
0
LINE
8
left_outsideCutPath
10
17.014
20
1.505
11
17.014
21
2.125
0
LINE
8
left_outsideCutPath
10
17.014
20
2.125
11
16.3594
21
2.125
0
LINE
8
left_outsideCutPath
10
16.3594
20
2.125
11
16.3594
21
1.889
0
LINE
8
left_outsideCutPath
10
16.3594
20
1.889
11
15.5558
21
1.889
0
LINE
8
left_outsideCutPath
10
15.5558
20
1.889
11
15.5558
21
1.645
0
LINE
8
left_outsideCutPath
10
15.5558
20
1.645
11
15.6458
21
1.645
0
LINE
8
left_outsideCutPath
10
15.6458
20
1.645
11
15.6458
21
1.505
0
LINE
8
left_outsideCutPath
10
15.6458
20
1.505
11
15.5558
21
1.505
0
LINE
8
left_outsideCutPath
10
15.5558
20
1.505
11
15.5558
21
1.365
0
LINE
8
left_outsideCutPath
10
15.5558
20
1.365
11
15.3818
21
1.365
0
LINE
8
left_outsideCutPath
10
15.3818
20
1.365
11
15.3818
21
1.505
0
LINE
8
left_outsideCutPath
10
15.3818
20
1.505
11
15.2918
21
1.505
0
LINE
8
left_outsideCutPath
10
15.2918
20
1.505
11
15.2918
21
1.645
0
LINE
8
left_outsideCutPath
10
15.2918
20
1.645
11
15.3818
21
1.645
0
LINE
8
left_outsideCutPath
10
15.3818
20
1.645
11
15.3818
21
1.889
0
LINE
8
left_outsideCutPath
10
15.3818
20
1.889
11
14.5781
21
1.889
0
LINE
8
left_outsideCutPath
10
14.5781
20
1.889
11
14.5781
21
2.125
0
LINE
8
left_outsideCutPath
10
14.5781
20
2.125
11
12.7969
21
2.125
0
LINE
8
left_outsideCutPath
10
12.7969
20
2.125
11
12.7969
21
1.889
0
LINE
8
left_outsideCutPath
10
12.7969
20
1.889
11
11.9933
21
1.889
0
LINE
8
left_outsideCutPath
10
11.9933
20
1.889
11
11.9933
21
1.645
0
LINE
8
left_outsideCutPath
10
11.9933
20
1.645
11
12.0833
21
1.645
0
LINE
8
left_outsideCutPath
10
12.0833
20
1.645
11
12.0833
21
1.505
0
LINE
8
left_outsideCutPath
10
12.0833
20
1.505
11
11.9933
21
1.505
0
LINE
8
left_outsideCutPath
10
11.9933
20
1.505
11
11.9933
21
1.365
0
LINE
8
left_outsideCutPath
10
11.9933
20
1.365
11
11.8193
21
1.365
0
LINE
8
left_outsideCutPath
10
11.8193
20
1.365
11
11.8193
21
1.505
0
LINE
8
left_outsideCutPath
10
11.8193
20
1.505
11
11.7293
21
1.505
0
LINE
8
left_outsideCutPath
10
11.7293
20
1.505
11
11.7293
21
1.645
0
LINE
8
left_outsideCutPath
10
11.7293
20
1.645
11
11.8193
21
1.645
0
LINE
8
left_outsideCutPath
10
11.8193
20
1.645
11
11.8193
21
1.889
0
LINE
8
left_outsideCutPath
10
11.8193
20
1.889
11
11.0156
21
1.889
0
LINE
8
left_outsideCutPath
10
11.0156
20
1.889
11
11.0156
21
2.125
0
LINE
8
left_outsideCutPath
10
11.0156
20
2.125
11
10.361
21
2.125
0
LINE
8
left_outsideCutPath
10
10.361
20
2.125
11
10.361
21
1.505
0
LINE
8
left_outsideCutPath
10
10.361
20
1.505
11
10.125
21
1.505
0
LINE
8
left_outsideCutPath
10
10.125
20
1.505
11
10.125
21
1.212
0
LINE
8
left_outsideCutPath
10
10.125
20
1.212
11
10.299
21
1.212
0
LINE
8
left_outsideCutPath
10
10.299
20
1.212
11
10.299
21
1.038
0
LINE
8
left_outsideCutPath
10
10.299
20
1.038
11
10.125
21
1.038
0
LINE
8
left_outsideCutPath
10
10.125
20
1.038
11
10.125
21
0.745
0
LINE
8
left_outsideCutPath
10
10.125
20
0.745
11
10.361
21
0.745
0
LINE
8
left_outsideCutPath
10
10.361
20
0.745
11
10.361
21
0.125
0
LINE
8
left_outsideCutPath
10
10.361
20
0.125
11
11.0156
21
0.125
0
LINE
8
left_outsideCutPath
10
11.0156
20
0.125
11
11.0156
21
0.361
0
LINE
8
top_outsideCutPath
10
19.788
20
0.299
11
19.962
21
0.299
0
LINE
8
top_outsideCutPath
10
19.962
20
0.299
11
19.962
21
0.125
0
LINE
8
top_outsideCutPath
10
19.962
20
0.125
11
21.125
21
0.125
0
LINE
8
top_outsideCutPath
10
21.125
20
0.125
11
21.125
21
0.361
0
LINE
8
top_outsideCutPath
10
21.125
20
0.361
11
23.625
21
0.361
0
LINE
8
top_outsideCutPath
10
23.625
20
0.361
11
23.625
21
0.125
0
LINE
8
top_outsideCutPath
10
23.625
20
0.125
11
24.788
21
0.125
0
LINE
8
top_outsideCutPath
10
24.788
20
0.125
11
24.788
21
0.299
0
LINE
8
top_outsideCutPath
10
24.788
20
0.299
11
24.962
21
0.299
0
LINE
8
top_outsideCutPath
10
24.962
20
0.299
11
24.962
21
0.125
0
LINE
8
top_outsideCutPath
10
24.962
20
0.125
11
26.125
21
0.125
0
LINE
8
top_outsideCutPath
10
26.125
20
0.125
11
26.125
21
0.361
0
LINE
8
top_outsideCutPath
10
26.125
20
0.361
11
27.139
21
0.361
0
LINE
8
top_outsideCutPath
10
27.139
20
0.361
11
27.139
21
1.0156
0
LINE
8
top_outsideCutPath
10
27.139
20
1.0156
11
27.375
21
1.0156
0
LINE
8
top_outsideCutPath
10
27.375
20
1.0156
11
27.375
21
1.8193
0
LINE
8
top_outsideCutPath
10
27.375
20
1.8193
11
27.201
21
1.8193
0
LINE
8
top_outsideCutPath
10
27.201
20
1.8193
11
27.201
21
1.9933
0
LINE
8
top_outsideCutPath
10
27.201
20
1.9933
11
27.375
21
1.9933
0
LINE
8
top_outsideCutPath
10
27.375
20
1.9933
11
27.375
21
2.7969
0
LINE
8
top_outsideCutPath
10
27.375
20
2.7969
11
27.139
21
2.7969
0
LINE
8
top_outsideCutPath
10
27.139
20
2.7969
11
27.139
21
4.5781
0
LINE
8
top_outsideCutPath
10
27.139
20
4.5781
11
27.375
21
4.5781
0
LINE
8
top_outsideCutPath
10
27.375
20
4.5781
11
27.375
21
5.3818
0
LINE
8
top_outsideCutPath
10
27.375
20
5.3818
11
27.201
21
5.3818
0
LINE
8
top_outsideCutPath
10
27.201
20
5.3818
11
27.201
21
5.5558
0
LINE
8
top_outsideCutPath
10
27.201
20
5.5558
11
27.375
21
5.5558
0
LINE
8
top_outsideCutPath
10
27.375
20
5.5558
11
27.375
21
6.3594
0
LINE
8
top_outsideCutPath
10
27.375
20
6.3594
11
27.139
21
6.3594
0
LINE
8
top_outsideCutPath
10
27.139
20
6.3594
11
27.139
21
7.014
0
LINE
8
top_outsideCutPath
10
27.139
20
7.014
11
26.125
21
7.014
0
LINE
8
top_outsideCutPath
10
26.125
20
7.014
11
26.125
21
7.25
0
LINE
8
top_outsideCutPath
10
26.125
20
7.25
11
24.962
21
7.25
0
LINE
8
top_outsideCutPath
10
24.962
20
7.25
11
24.962
21
7.076
0
LINE
8
top_outsideCutPath
10
24.962
20
7.076
11
24.788
21
7.076
0
LINE
8
top_outsideCutPath
10
24.788
20
7.076
11
24.788
21
7.25
0
LINE
8
top_outsideCutPath
10
24.788
20
7.25
11
23.625
21
7.25
0
LINE
8
top_outsideCutPath
10
23.625
20
7.25
11
23.625
21
7.014
0
LINE
8
top_outsideCutPath
10
23.625
20
7.014
11
21.125
21
7.014
0
LINE
8
top_outsideCutPath
10
21.125
20
7.014
11
21.125
21
7.25
0
LINE
8
top_outsideCutPath
10
21.125
20
7.25
11
19.962
21
7.25
0
LINE
8
top_outsideCutPath
10
19.962
20
7.25
11
19.962
21
7.076
0
LINE
8
top_outsideCutPath
10
19.962
20
7.076
11
19.788
21
7.076
0
LINE
8
top_outsideCutPath
10
19.788
20
7.076
11
19.788
21
7.25
0
LINE
8
top_outsideCutPath
10
19.788
20
7.25
11
18.625
21
7.25
0
LINE
8
top_outsideCutPath
10
18.625
20
7.25
11
18.625
21
7.014
0
LINE
8
top_outsideCutPath
10
18.625
20
7.014
11
17.611
21
7.014
0
LINE
8
top_outsideCutPath
10
17.611
20
7.014
11
17.611
21
6.3594
0
LINE
8
top_outsideCutPath
10
17.611
20
6.3594
11
17.375
21
6.3594
0
LINE
8
top_outsideCutPath
10
17.375
20
6.3594
11
17.375
21
5.5558
0
LINE
8
top_outsideCutPath
10
17.375
20
5.5558
11
17.549
21
5.5558
0
LINE
8
top_outsideCutPath
10
17.549
20
5.5558
11
17.549
21
5.3818
0
LINE
8
top_outsideCutPath
10
17.549
20
5.3818
11
17.375
21
5.3818
0
LINE
8
top_outsideCutPath
10
17.375
20
5.3818
11
17.375
21
4.5781
0
LINE
8
top_outsideCutPath
10
17.375
20
4.5781
11
17.611
21
4.5781
0
LINE
8
top_outsideCutPath
10
17.611
20
4.5781
11
17.611
21
2.7969
0
LINE
8
top_outsideCutPath
10
17.611
20
2.7969
11
17.375
21
2.7969
0
LINE
8
top_outsideCutPath
10
17.375
20
2.7969
11
17.375
21
1.9933
0
LINE
8
top_outsideCutPath
10
17.375
20
1.9933
11
17.549
21
1.9933
0
LINE
8
top_outsideCutPath
10
17.549
20
1.9933
11
17.549
21
1.8193
0
LINE
8
top_outsideCutPath
10
17.549
20
1.8193
11
17.375
21
1.8193
0
LINE
8
top_outsideCutPath
10
17.375
20
1.8193
11
17.375
21
1.0156
0
LINE
8
top_outsideCutPath
10
17.375
20
1.0156
11
17.611
21
1.0156
0
LINE
8
top_outsideCutPath
10
17.611
20
1.0156
11
17.611
21
0.361
0
LINE
8
top_outsideCutPath
10
17.611
20
0.361
11
18.625
21
0.361
0
LINE
8
top_outsideCutPath
10
18.625
20
0.361
11
18.625
21
0.125
0
LINE
8
top_outsideCutPath
10
18.625
20
0.125
11
19.788
21
0.125
0
LINE
8
top_outsideCutPath
10
19.788
20
0.125
11
19.788
21
0.299
0
LINE
8
back_outsideCutPath
10
1.25
20
2.486
11
2.413
21
2.486
0
LINE
8
back_outsideCutPath
10
2.413
20
2.486
11
2.413
21
2.73
0
LINE
8
back_outsideCutPath
10
2.413
20
2.73
11
2.323
21
2.73
0
LINE
8
back_outsideCutPath
10
2.323
20
2.73
11
2.323
21
2.87
0
LINE
8
back_outsideCutPath
10
2.323
20
2.87
11
2.413
21
2.87
0
LINE
8
back_outsideCutPath
10
2.413
20
2.87
11
2.413
21
3.01
0
LINE
8
back_outsideCutPath
10
2.413
20
3.01
11
2.587
21
3.01
0
LINE
8
back_outsideCutPath
10
2.587
20
3.01
11
2.587
21
2.87
0
LINE
8
back_outsideCutPath
10
2.587
20
2.87
11
2.677
21
2.87
0
LINE
8
back_outsideCutPath
10
2.677
20
2.87
11
2.677
21
2.73
0
LINE
8
back_outsideCutPath
10
2.677
20
2.73
11
2.587
21
2.73
0
LINE
8
back_outsideCutPath
10
2.587
20
2.73
11
2.587
21
2.486
0
LINE
8
back_outsideCutPath
10
2.587
20
2.486
11
3.75
21
2.486
0
LINE
8
back_outsideCutPath
10
3.75
20
2.486
11
3.75
21
2.25
0
LINE
8
back_outsideCutPath
10
3.75
20
2.25
11
6.25
21
2.25
0
LINE
8
back_outsideCutPath
10
6.25
20
2.25
11
6.25
21
2.486
0
LINE
8
back_outsideCutPath
10
6.25
20
2.486
11
7.413
21
2.486
0
LINE
8
back_outsideCutPath
10
7.413
20
2.486
11
7.413
21
2.73
0
LINE
8
back_outsideCutPath
10
7.413
20
2.73
11
7.323
21
2.73
0
LINE
8
back_outsideCutPath
10
7.323
20
2.73
11
7.323
21
2.87
0
LINE
8
back_outsideCutPath
10
7.323
20
2.87
11
7.413
21
2.87
0
LINE
8
back_outsideCutPath
10
7.413
20
2.87
11
7.413
21
3.01
0
LINE
8
back_outsideCutPath
10
7.413
20
3.01
11
7.587
21
3.01
0
LINE
8
back_outsideCutPath
10
7.587
20
3.01
11
7.587
21
2.87
0
LINE
8
back_outsideCutPath
10
7.587
20
2.87
11
7.677
21
2.87
0
LINE
8
back_outsideCutPath
10
7.677
20
2.87
11
7.677
21
2.73
0
LINE
8
back_outsideCutPath
10
7.677
20
2.73
11
7.587
21
2.73
0
LINE
8
back_outsideCutPath
10
7.587
20
2.73
11
7.587
21
2.486
0
LINE
8
back_outsideCutPath
10
7.587
20
2.486
11
8.75
21
2.486
0
LINE
8
back_outsideCutPath
10
8.75
20
2.486
11
8.75
21
2.25
0
LINE
8
back_outsideCutPath
10
8.75
20
2.25
11
10
21
2.25
0
LINE
8
back_outsideCutPath
10
10
20
2.25
11
10
21
2.87
0
LINE
8
back_outsideCutPath
10
10
20
2.87
11
9.764
21
2.87
0
LINE
8
back_outsideCutPath
10
9.764
20
2.87
11
9.764
21
3.163
0
LINE
8
back_outsideCutPath
10
9.764
20
3.163
11
9.52
21
3.163
0
LINE
8
back_outsideCutPath
10
9.52
20
3.163
11
9.52
21
3.073
0
LINE
8
back_outsideCutPath
10
9.52
20
3.073
11
9.38
21
3.073
0
LINE
8
back_outsideCutPath
10
9.38
20
3.073
11
9.38
21
3.163
0
LINE
8
back_outsideCutPath
10
9.38
20
3.163
11
9.24
21
3.163
0
LINE
8
back_outsideCutPath
10
9.24
20
3.163
11
9.24
21
3.337
0
LINE
8
back_outsideCutPath
10
9.24
20
3.337
11
9.38
21
3.337
0
LINE
8
back_outsideCutPath
10
9.38
20
3.337
11
9.38
21
3.427
0
LINE
8
back_outsideCutPath
10
9.38
20
3.427
11
9.52
21
3.427
0
LINE
8
back_outsideCutPath
10
9.52
20
3.427
11
9.52
21
3.337
0
LINE
8
back_outsideCutPath
10
9.52
20
3.337
11
9.764
21
3.337
0
LINE
8
back_outsideCutPath
10
9.764
20
3.337
11
9.764
21
3.63
0
LINE
8
back_outsideCutPath
10
9.764
20
3.63
11
10
21
3.63
0
LINE
8
back_outsideCutPath
10
10
20
3.63
11
10
21
4.25
0
LINE
8
back_outsideCutPath
10
10
20
4.25
11
8.75
21
4.25
0
LINE
8
back_outsideCutPath
10
8.75
20
4.25
11
8.75
21
4.014
0
LINE
8
back_outsideCutPath
10
8.75
20
4.014
11
7.587
21
4.014
0
LINE
8
back_outsideCutPath
10
7.587
20
4.014
11
7.587
21
3.77
0
LINE
8
back_outsideCutPath
10
7.587
20
3.77
11
7.677
21
3.77
0
LINE
8
back_outsideCutPath
10
7.677
20
3.77
11
7.677
21
3.63
0
LINE
8
back_outsideCutPath
10
7.677
20
3.63
11
7.587
21
3.63
0
LINE
8
back_outsideCutPath
10
7.587
20
3.63
11
7.587
21
3.49
0
LINE
8
back_outsideCutPath
10
7.587
20
3.49
11
7.413
21
3.49
0
LINE
8
back_outsideCutPath
10
7.413
20
3.49
11
7.413
21
3.63
0
LINE
8
back_outsideCutPath
10
7.413
20
3.63
11
7.323
21
3.63
0
LINE
8
back_outsideCutPath
10
7.323
20
3.63
11
7.323
21
3.77
0
LINE
8
back_outsideCutPath
10
7.323
20
3.77
11
7.413
21
3.77
0
LINE
8
back_outsideCutPath
10
7.413
20
3.77
11
7.413
21
4.014
0
LINE
8
back_outsideCutPath
10
7.413
20
4.014
11
6.25
21
4.014
0
LINE
8
back_outsideCutPath
10
6.25
20
4.014
11
6.25
21
4.25
0
LINE
8
back_outsideCutPath
10
6.25
20
4.25
11
3.75
21
4.25
0
LINE
8
back_outsideCutPath
10
3.75
20
4.25
11
3.75
21
4.014
0
LINE
8
back_outsideCutPath
10
3.75
20
4.014
11
2.587
21
4.014
0
LINE
8
back_outsideCutPath
10
2.587
20
4.014
11
2.587
21
3.77
0
LINE
8
back_outsideCutPath
10
2.587
20
3.77
11
2.677
21
3.77
0
LINE
8
back_outsideCutPath
10
2.677
20
3.77
11
2.677
21
3.63
0
LINE
8
back_outsideCutPath
10
2.677
20
3.63
11
2.587
21
3.63
0
LINE
8
back_outsideCutPath
10
2.587
20
3.63
11
2.587
21
3.49
0
LINE
8
back_outsideCutPath
10
2.587
20
3.49
11
2.413
21
3.49
0
LINE
8
back_outsideCutPath
10
2.413
20
3.49
11
2.413
21
3.63
0
LINE
8
back_outsideCutPath
10
2.413
20
3.63
11
2.323
21
3.63
0
LINE
8
back_outsideCutPath
10
2.323
20
3.63
11
2.323
21
3.77
0
LINE
8
back_outsideCutPath
10
2.323
20
3.77
11
2.413
21
3.77
0
LINE
8
back_outsideCutPath
10
2.413
20
3.77
11
2.413
21
4.014
0
LINE
8
back_outsideCutPath
10
2.413
20
4.014
11
1.25
21
4.014
0
LINE
8
back_outsideCutPath
10
1.25
20
4.014
11
1.25
21
4.25
0
LINE
8
back_outsideCutPath
10
1.25
20
4.25
11
0
21
4.25
0
LINE
8
back_outsideCutPath
10
0
20
4.25
11
0
21
3.63
0
LINE
8
back_outsideCutPath
10
0
20
3.63
11
0.236
21
3.63
0
LINE
8
back_outsideCutPath
10
0.236
20
3.63
11
0.236
21
3.337
0
LINE
8
back_outsideCutPath
10
0.236
20
3.337
11
0.48
21
3.337
0
LINE
8
back_outsideCutPath
10
0.48
20
3.337
11
0.48
21
3.427
0
LINE
8
back_outsideCutPath
10
0.48
20
3.427
11
0.62
21
3.427
0
LINE
8
back_outsideCutPath
10
0.62
20
3.427
11
0.62
21
3.337
0
LINE
8
back_outsideCutPath
10
0.62
20
3.337
11
0.76
21
3.337
0
LINE
8
back_outsideCutPath
10
0.76
20
3.337
11
0.76
21
3.163
0
LINE
8
back_outsideCutPath
10
0.76
20
3.163
11
0.62
21
3.163
0
LINE
8
back_outsideCutPath
10
0.62
20
3.163
11
0.62
21
3.073
0
LINE
8
back_outsideCutPath
10
0.62
20
3.073
11
0.48
21
3.073
0
LINE
8
back_outsideCutPath
10
0.48
20
3.073
11
0.48
21
3.163
0
LINE
8
back_outsideCutPath
10
0.48
20
3.163
11
0.236
21
3.163
0
LINE
8
back_outsideCutPath
10
0.236
20
3.163
11
0.236
21
2.87
0
LINE
8
back_outsideCutPath
10
0.236
20
2.87
11
0
21
2.87
0
LINE
8
back_outsideCutPath
10
0
20
2.87
11
0
21
2.25
0
LINE
8
back_outsideCutPath
10
0
20
2.25
11
1.25
21
2.25
0
LINE
8
back_outsideCutPath
10
1.25
20
2.25
11
1.25
21
2.486
0
LINE
8
right_outsideCutPath
10
11.0156
20
2.486
11
11.8193
21
2.486
0
LINE
8
right_outsideCutPath
10
11.8193
20
2.486
11
11.8193
21
2.73
0
LINE
8
right_outsideCutPath
10
11.8193
20
2.73
11
11.7293
21
2.73
0
LINE
8
right_outsideCutPath
10
11.7293
20
2.73
11
11.7293
21
2.87
0
LINE
8
right_outsideCutPath
10
11.7293
20
2.87
11
11.8193
21
2.87
0
LINE
8
right_outsideCutPath
10
11.8193
20
2.87
11
11.8193
21
3.01
0
LINE
8
right_outsideCutPath
10
11.8193
20
3.01
11
11.9933
21
3.01
0
LINE
8
right_outsideCutPath
10
11.9933
20
3.01
11
11.9933
21
2.87
0
LINE
8
right_outsideCutPath
10
11.9933
20
2.87
11
12.0833
21
2.87
0
LINE
8
right_outsideCutPath
10
12.0833
20
2.87
11
12.0833
21
2.73
0
LINE
8
right_outsideCutPath
10
12.0833
20
2.73
11
11.9933
21
2.73
0
LINE
8
right_outsideCutPath
10
11.9933
20
2.73
11
11.9933
21
2.486
0
LINE
8
right_outsideCutPath
10
11.9933
20
2.486
11
12.7969
21
2.486
0
LINE
8
right_outsideCutPath
10
12.7969
20
2.486
11
12.7969
21
2.25
0
LINE
8
right_outsideCutPath
10
12.7969
20
2.25
11
14.5781
21
2.25
0
LINE
8
right_outsideCutPath
10
14.5781
20
2.25
11
14.5781
21
2.486
0
LINE
8
right_outsideCutPath
10
14.5781
20
2.486
11
15.3818
21
2.486
0
LINE
8
right_outsideCutPath
10
15.3818
20
2.486
11
15.3818
21
2.73
0
LINE
8
right_outsideCutPath
10
15.3818
20
2.73
11
15.2918
21
2.73
0
LINE
8
right_outsideCutPath
10
15.2918
20
2.73
11
15.2918
21
2.87
0
LINE
8
right_outsideCutPath
10
15.2918
20
2.87
11
15.3818
21
2.87
0
LINE
8
right_outsideCutPath
10
15.3818
20
2.87
11
15.3818
21
3.01
0
LINE
8
right_outsideCutPath
10
15.3818
20
3.01
11
15.5558
21
3.01
0
LINE
8
right_outsideCutPath
10
15.5558
20
3.01
11
15.5558
21
2.87
0
LINE
8
right_outsideCutPath
10
15.5558
20
2.87
11
15.6458
21
2.87
0
LINE
8
right_outsideCutPath
10
15.6458
20
2.87
11
15.6458
21
2.73
0
LINE
8
right_outsideCutPath
10
15.6458
20
2.73
11
15.5558
21
2.73
0
LINE
8
right_outsideCutPath
10
15.5558
20
2.73
11
15.5558
21
2.486
0
LINE
8
right_outsideCutPath
10
15.5558
20
2.486
11
16.3594
21
2.486
0
LINE
8
right_outsideCutPath
10
16.3594
20
2.486
11
16.3594
21
2.25
0
LINE
8
right_outsideCutPath
10
16.3594
20
2.25
11
17.014
21
2.25
0
LINE
8
right_outsideCutPath
10
17.014
20
2.25
11
17.014
21
2.87
0
LINE
8
right_outsideCutPath
10
17.014
20
2.87
11
17.25
21
2.87
0
LINE
8
right_outsideCutPath
10
17.25
20
2.87
11
17.25
21
3.163
0
LINE
8
right_outsideCutPath
10
17.25
20
3.163
11
17.076
21
3.163
0
LINE
8
right_outsideCutPath
10
17.076
20
3.163
11
17.076
21
3.337
0
LINE
8
right_outsideCutPath
10
17.076
20
3.337
11
17.25
21
3.337
0
LINE
8
right_outsideCutPath
10
17.25
20
3.337
11
17.25
21
3.63
0
LINE
8
right_outsideCutPath
10
17.25
20
3.63
11
17.014
21
3.63
0
LINE
8
right_outsideCutPath
10
17.014
20
3.63
11
17.014
21
4.25
0
LINE
8
right_outsideCutPath
10
17.014
20
4.25
11
16.3594
21
4.25
0
LINE
8
right_outsideCutPath
10
16.3594
20
4.25
11
16.3594
21
4.014
0
LINE
8
right_outsideCutPath
10
16.3594
20
4.014
11
15.5558
21
4.014
0
LINE
8
right_outsideCutPath
10
15.5558
20
4.014
11
15.5558
21
3.77
0
LINE
8
right_outsideCutPath
10
15.5558
20
3.77
11
15.6458
21
3.77
0
LINE
8
right_outsideCutPath
10
15.6458
20
3.77
11
15.6458
21
3.63
0
LINE
8
right_outsideCutPath
10
15.6458
20
3.63
11
15.5558
21
3.63
0
LINE
8
right_outsideCutPath
10
15.5558
20
3.63
11
15.5558
21
3.49
0
LINE
8
right_outsideCutPath
10
15.5558
20
3.49
11
15.3818
21
3.49
0
LINE
8
right_outsideCutPath
10
15.3818
20
3.49
11
15.3818
21
3.63
0
LINE
8
right_outsideCutPath
10
15.3818
20
3.63
11
15.2918
21
3.63
0
LINE
8
right_outsideCutPath
10
15.2918
20
3.63
11
15.2918
21
3.77
0
LINE
8
right_outsideCutPath
10
15.2918
20
3.77
11
15.3818
21
3.77
0
LINE
8
right_outsideCutPath
10
15.3818
20
3.77
11
15.3818
21
4.014
0
LINE
8
right_outsideCutPath
10
15.3818
20
4.014
11
14.5781
21
4.014
0
LINE
8
right_outsideCutPath
10
14.5781
20
4.014
11
14.5781
21
4.25
0
LINE
8
right_outsideCutPath
10
14.5781
20
4.25
11
12.7969
21
4.25
0
LINE
8
right_outsideCutPath
10
12.7969
20
4.25
11
12.7969
21
4.014
0
LINE
8
right_outsideCutPath
10
12.7969
20
4.014
11
11.9933
21
4.014
0
LINE
8
right_outsideCutPath
10
11.9933
20
4.014
11
11.9933
21
3.77
0
LINE
8
right_outsideCutPath
10
11.9933
20
3.77
11
12.0833
21
3.77
0
LINE
8
right_outsideCutPath
10
12.0833
20
3.77
11
12.0833
21
3.63
0
LINE
8
right_outsideCutPath
10
12.0833
20
3.63
11
11.9933
21
3.63
0
LINE
8
right_outsideCutPath
10
11.9933
20
3.63
11
11.9933
21
3.49
0
LINE
8
right_outsideCutPath
10
11.9933
20
3.49
11
11.8193
21
3.49
0
LINE
8
right_outsideCutPath
10
11.8193
20
3.49
11
11.8193
21
3.63
0
LINE
8
right_outsideCutPath
10
11.8193
20
3.63
11
11.7293
21
3.63
0
LINE
8
right_outsideCutPath
10
11.7293
20
3.63
11
11.7293
21
3.77
0
LINE
8
right_outsideCutPath
10
11.7293
20
3.77
11
11.8193
21
3.77
0
LINE
8
right_outsideCutPath
10
11.8193
20
3.77
11
11.8193
21
4.014
0
LINE
8
right_outsideCutPath
10
11.8193
20
4.014
11
11.0156
21
4.014
0
LINE
8
right_outsideCutPath
10
11.0156
20
4.014
11
11.0156
21
4.25
0
LINE
8
right_outsideCutPath
10
11.0156
20
4.25
11
10.361
21
4.25
0
LINE
8
right_outsideCutPath
10
10.361
20
4.25
11
10.361
21
3.63
0
LINE
8
right_outsideCutPath
10
10.361
20
3.63
11
10.125
21
3.63
0
LINE
8
right_outsideCutPath
10
10.125
20
3.63
11
10.125
21
3.337
0
LINE
8
right_outsideCutPath
10
10.125
20
3.337
11
10.299
21
3.337
0
LINE
8
right_outsideCutPath
10
10.299
20
3.337
11
10.299
21
3.163
0
LINE
8
right_outsideCutPath
10
10.299
20
3.163
11
10.125
21
3.163
0
LINE
8
right_outsideCutPath
10
10.125
20
3.163
11
10.125
21
2.87
0
LINE
8
right_outsideCutPath
10
10.125
20
2.87
11
10.361
21
2.87
0
LINE
8
right_outsideCutPath
10
10.361
20
2.87
11
10.361
21
2.25
0
LINE
8
right_outsideCutPath
10
10.361
20
2.25
11
11.0156
21
2.25
0
LINE
8
right_outsideCutPath
10
11.0156
20
2.25
11
11.0156
21
2.486
0
LINE
8
bottom_outsideCutPath
10
19.788
20
7.549
11
19.962
21
7.549
0
LINE
8
bottom_outsideCutPath
10
19.962
20
7.549
11
19.962
21
7.375
0
LINE
8
bottom_outsideCutPath
10
19.962
20
7.375
11
21.125
21
7.375
0
LINE
8
bottom_outsideCutPath
10
21.125
20
7.375
11
21.125
21
7.611
0
LINE
8
bottom_outsideCutPath
10
21.125
20
7.611
11
23.625
21
7.611
0
LINE
8
bottom_outsideCutPath
10
23.625
20
7.611
11
23.625
21
7.375
0
LINE
8
bottom_outsideCutPath
10
23.625
20
7.375
11
24.788
21
7.375
0
LINE
8
bottom_outsideCutPath
10
24.788
20
7.375
11
24.788
21
7.549
0
LINE
8
bottom_outsideCutPath
10
24.788
20
7.549
11
24.962
21
7.549
0
LINE
8
bottom_outsideCutPath
10
24.962
20
7.549
11
24.962
21
7.375
0
LINE
8
bottom_outsideCutPath
10
24.962
20
7.375
11
26.125
21
7.375
0
LINE
8
bottom_outsideCutPath
10
26.125
20
7.375
11
26.125
21
7.611
0
LINE
8
bottom_outsideCutPath
10
26.125
20
7.611
11
27.139
21
7.611
0
LINE
8
bottom_outsideCutPath
10
27.139
20
7.611
11
27.139
21
8.2656
0
LINE
8
bottom_outsideCutPath
10
27.139
20
8.2656
11
27.375
21
8.2656
0
LINE
8
bottom_outsideCutPath
10
27.375
20
8.2656
11
27.375
21
9.0693
0
LINE
8
bottom_outsideCutPath
10
27.375
20
9.0693
11
27.201
21
9.0693
0
LINE
8
bottom_outsideCutPath
10
27.201
20
9.0693
11
27.201
21
9.2433
0
LINE
8
bottom_outsideCutPath
10
27.201
20
9.2433
11
27.375
21
9.2433
0
LINE
8
bottom_outsideCutPath
10
27.375
20
9.2433
11
27.375
21
10.0469
0
LINE
8
bottom_outsideCutPath
10
27.375
20
10.0469
11
27.139
21
10.0469
0
LINE
8
bottom_outsideCutPath
10
27.139
20
10.0469
11
27.139
21
11.8281
0
LINE
8
bottom_outsideCutPath
10
27.139
20
11.8281
11
27.375
21
11.8281
0
LINE
8
bottom_outsideCutPath
10
27.375
20
11.8281
11
27.375
21
12.6318
0
LINE
8
bottom_outsideCutPath
10
27.375
20
12.6318
11
27.201
21
12.6318
0
LINE
8
bottom_outsideCutPath
10
27.201
20
12.6318
11
27.201
21
12.8058
0
LINE
8
bottom_outsideCutPath
10
27.201
20
12.8058
11
27.375
21
12.8058
0
LINE
8
bottom_outsideCutPath
10
27.375
20
12.8058
11
27.375
21
13.6094
0
LINE
8
bottom_outsideCutPath
10
27.375
20
13.6094
11
27.139
21
13.6094
0
LINE
8
bottom_outsideCutPath
10
27.139
20
13.6094
11
27.139
21
14.264
0
LINE
8
bottom_outsideCutPath
10
27.139
20
14.264
11
26.125
21
14.264
0
LINE
8
bottom_outsideCutPath
10
26.125
20
14.264
11
26.125
21
14.5
0
LINE
8
bottom_outsideCutPath
10
26.125
20
14.5
11
24.962
21
14.5
0
LINE
8
bottom_outsideCutPath
10
24.962
20
14.5
11
24.962
21
14.326
0
LINE
8
bottom_outsideCutPath
10
24.962
20
14.326
11
24.788
21
14.326
0
LINE
8
bottom_outsideCutPath
10
24.788
20
14.326
11
24.788
21
14.5
0
LINE
8
bottom_outsideCutPath
10
24.788
20
14.5
11
23.625
21
14.5
0
LINE
8
bottom_outsideCutPath
10
23.625
20
14.5
11
23.625
21
14.264
0
LINE
8
bottom_outsideCutPath
10
23.625
20
14.264
11
21.125
21
14.264
0
LINE
8
bottom_outsideCutPath
10
21.125
20
14.264
11
21.125
21
14.5
0
LINE
8
bottom_outsideCutPath
10
21.125
20
14.5
11
19.962
21
14.5
0
LINE
8
bottom_outsideCutPath
10
19.962
20
14.5
11
19.962
21
14.326
0
LINE
8
bottom_outsideCutPath
10
19.962
20
14.326
11
19.788
21
14.326
0
LINE
8
bottom_outsideCutPath
10
19.788
20
14.326
11
19.788
21
14.5
0
LINE
8
bottom_outsideCutPath
10
19.788
20
14.5
11
18.625
21
14.5
0
LINE
8
bottom_outsideCutPath
10
18.625
20
14.5
11
18.625
21
14.264
0
LINE
8
bottom_outsideCutPath
10
18.625
20
14.264
11
17.611
21
14.264
0
LINE
8
bottom_outsideCutPath
10
17.611
20
14.264
11
17.611
21
13.6094
0
LINE
8
bottom_outsideCutPath
10
17.611
20
13.6094
11
17.375
21
13.6094
0
LINE
8
bottom_outsideCutPath
10
17.375
20
13.6094
11
17.375
21
12.8058
0
LINE
8
bottom_outsideCutPath
10
17.375
20
12.8058
11
17.549
21
12.8058
0
LINE
8
bottom_outsideCutPath
10
17.549
20
12.8058
11
17.549
21
12.6318
0
LINE
8
bottom_outsideCutPath
10
17.549
20
12.6318
11
17.375
21
12.6318
0
LINE
8
bottom_outsideCutPath
10
17.375
20
12.6318
11
17.375
21
11.8281
0
LINE
8
bottom_outsideCutPath
10
17.375
20
11.8281
11
17.611
21
11.8281
0
LINE
8
bottom_outsideCutPath
10
17.611
20
11.8281
11
17.611
21
10.0469
0
LINE
8
bottom_outsideCutPath
10
17.611
20
10.0469
11
17.375
21
10.0469
0
LINE
8
bottom_outsideCutPath
10
17.375
20
10.0469
11
17.375
21
9.2433
0
LINE
8
bottom_outsideCutPath
10
17.375
20
9.2433
11
17.549
21
9.2433
0
LINE
8
bottom_outsideCutPath
10
17.549
20
9.2433
11
17.549
21
9.0693
0
LINE
8
bottom_outsideCutPath
10
17.549
20
9.0693
11
17.375
21
9.0693
0
LINE
8
bottom_outsideCutPath
10
17.375
20
9.0693
11
17.375
21
8.2656
0
LINE
8
bottom_outsideCutPath
10
17.375
20
8.2656
11
17.611
21
8.2656
0
LINE
8
bottom_outsideCutPath
10
17.611
20
8.2656
11
17.611
21
7.611
0
LINE
8
bottom_outsideCutPath
10
17.611
20
7.611
11
18.625
21
7.611
0
LINE
8
bottom_outsideCutPath
10
18.625
20
7.611
11
18.625
21
7.375
0
LINE
8
bottom_outsideCutPath
10
18.625
20
7.375
11
19.788
21
7.375
0
LINE
8
bottom_outsideCutPath
10
19.788
20
7.375
11
19.788
21
7.549
0
ENDSEC
0
EOF