0
SECTION
2
HEADER
9
$INSUNITS
70
1
9
$ACADVER
1
AC1014
9
$HANDSEED
5
FFFF
0
ENDSEC
0
SECTION
2
TABLES
0
TABLE
2
VPORT
5
8
100
AcDbSymbolTable
0
ENDTAB
0
TABLE
2
LTYPE
5
5
100
AcDbSymbolTable
0
LTYPE
5
14
100
AcDbSymbolTableRecord
100
AcDbLinetypeTableRecord
2
BYBLOCK
70
0
0
LTYPE
5
15
100
AcDbSymbolTableRecord
100
AcDbLinetypeTableRecord
2
BYLAYER
70
0
0
ENDTAB
0
TABLE
2
LAYER
5
2
100
AcDbSymbolTable
70
2
0
LAYER
5
50
100
AcDbSymbolTableRecord
100
AcDbLayerTableRecord
2
0
70
0
6
CONTINUOUS
0
ENDTAB
0
TABLE
2
STYLE
5
3
100
AcDbSymbolTable
70
1
0
STYLE
5
11
100
AcDbSymbolTableRecord
100
AcDbTextStyleTableRecord
2
STANDARD
70
0
0
ENDTAB
0
TABLE
2
VIEW
5
6
100
AcDbSymbolTable
70
0
0
ENDTAB
0
TABLE
2
UCS
5
7
100
AcDbSymbolTable
70
0
0
ENDTAB
0
TABLE
2
APPID
5
9
100
AcDbSymbolTable
70
2
0
APPID
5
12
100
AcDbSymbolTableRecord
100
AcDbRegAppTableRecord
2
ACAD
70
0
0
ENDTAB
0
TABLE
2
DIMSTYLE
5
A
100
AcDbSymbolTable
70
1
0
ENDTAB
0
TABLE
2
BLOCK_RECORD
5
1
100
AcDbSymbolTable
70
1
0
BLOCK_RECORD
5
1F
100
AcDbSymbolTableRecord
100
AcDbBlockTableRecord
2
*MODEL_SPACE
0
BLOCK_RECORD
5
1B
100
AcDbSymbolTableRecord
100
AcDbBlockTableRecord
2
*PAPER_SPACE
0
ENDTAB
0
ENDSEC
0
SECTION
2
BLOCKS
0
BLOCK
5
20
100
AcDbEntity
100
AcDbBlockBegin
2
*MODEL_SPACE
0
ENDBLK
5
21
100
AcDbEntity
100
AcDbBlockEnd
0
BLOCK
5
1C
100
AcDbEntity
100
AcDbBlockBegin
2
*PAPER_SPACE
0
ENDBLK
5
1D
100
AcDbEntity
100
AcDbBlockEnd
0
ENDSEC
0
SECTION
2
ENTITIES
0
LWPOLYLINE
5
100
100
AcDbEntity
8
0
100
AcDbPolyline
90
4
70
1
43
0.0
10
1.5000000542543064
20
-1.200000044680017
10
1.7000000542543063
20
-1.200000044680017
10
1.7000000542543063
20
-1.4000000446800172
10
1.5000000542543064
20
-1.4000000446800172
0
LWPOLYLINE
5
101
100
AcDbEntity
8
0
100
AcDbPolyline
90
4
70
1
43
0.0
10
1.0646393711252455
20
0.47349841691357847
10
0.85463937112524546
20
0.47349841691357847
10
0.85463937112524546
20
0.6834984169135786
10
1.0646393711252455
20
0.6834984169135786
0
LWPOLYLINE
5
102
100
AcDbEntity
8
0
100
AcDbPolyline
90
4
70
1
43
0.0
10
-6.940360628874755
20
0.17349841691357845
10
-6.740360628874754
20
0.17349841691357845
10
-6.740360628874754
20
-0.026501583086421521
10
-6.940360628874755
20
-0.026501583086421521
0
LWPOLYLINE
5
103
100
AcDbEntity
8
0
100
AcDbPolyline
90
4
70
1
43
0.0
10
-6.2903606288747538
20
0.17349841691357845
10
-6.0903606288747536
20
0.17349841691357845
10
-6.0903606288747536
20
-0.026501583086421521
10
-6.2903606288747538
20
-0.026501583086421521
0
LWPOLYLINE
5
104
100
AcDbEntity
8
0
100
AcDbPolyline
90
4
70
1
43
0.0
10
-5.6403606288747534
20
0.17349841691357845
10
-5.4403606288747541
20
0.17349841691357845
10
-5.4403606288747541
20
-0.026501583086421521
10
-5.6403606288747534
20
-0.026501583086421521
0
LWPOLYLINE
5
105
100
AcDbEntity
8
0
100
AcDbPolyline
90
4
70
1
43
0.0
10
-4.990360628874754
20
0.17349841691357845
10
-4.7903606288747538
20
0.17349841691357845
10
-4.7903606288747538
20
-0.026501583086421521
10
-4.990360628874754
20
-0.026501583086421521
0
LWPOLYLINE
5
106
100
AcDbEntity
8
0
100
AcDbPolyline
90
4
70
1
43
0.0
10
-4.3403606288747536
20
0.17349841691357845
10
-4.1403606288747543
20
0.17349841691357845
10
-4.1403606288747543
20
-0.026501583086421521
10
-4.3403606288747536
20
-0.026501583086421521
0
LWPOLYLINE
5
107
100
AcDbEntity
8
0
100
AcDbPolyline
90
4
70
1
43
0.0
10
-3.6903606288747541
20
0.17349841691357845
10
-3.4903606288747544
20
0.17349841691357845
10
-3.4903606288747544
20
-0.026501583086421521
10
-3.6903606288747541
20
-0.026501583086421521
0
LWPOLYLINE
5
108
100
AcDbEntity
8
0
100
AcDbPolyline
90
4
70
1
43
0.0
10
-3.0403606288747547
20
0.17349841691357845
10
-2.840360628874754
20
0.17349841691357845
10
-2.840360628874754
20
-0.026501583086421521
10
-3.0403606288747547
20
-0.026501583086421521
0
LWPOLYLINE
5
109
100
AcDbEntity
8
0
100
AcDbPolyline
90
4
70
1
43
0.0
10
-2.3903606288747548
20
0.17349841691357845
10
-2.1903606288747541
20
0.17349841691357845
10
-2.1903606288747541
20
-0.026501583086421521
10
-2.3903606288747548
20
-0.026501583086421521
0
LWPOLYLINE
5
110
100
AcDbEntity
8
0
100
AcDbPolyline
90
4
70
1
43
0.0
10
-1.7403606288747548
20
0.17349841691357845
10
-1.5403606288747544
20
0.17349841691357845
10
-1.5403606288747544
20
-0.026501583086421521
10
-1.7403606288747548
20
-0.026501583086421521
0
LWPOLYLINE
5
111
100
AcDbEntity
8
0
100
AcDbPolyline
90
4
70
1
43
0.0
10
-1.0903606288747543
20
0.17349841691357845
10
-0.8903606288747542
20
0.17349841691357845
10
-0.8903606288747542
20
-0.026501583086421521
10
-1.0903606288747543
20
-0.026501583086421521
0
LWPOLYLINE
5
112
100
AcDbEntity
8
0
100
AcDbPolyline
90
4
70
1
43
0.0
10
-0.44036062887475436
20
0.17349841691357845
10
-0.24036062887475435
20
0.17349841691357845
10
-0.24036062887475435
20
-0.026501583086421521
10
-0.44036062887475436
20
-0.026501583086421521
0
LWPOLYLINE
5
113
100
AcDbEntity
8
0
100
AcDbPolyline
90
4
70
1
43
0.0
10
0.20963937112524569
20
0.17349841691357845
10
0.40963937112524568
20
0.17349841691357845
10
0.40963937112524568
20
-0.026501583086421521
10
0.20963937112524569
20
-0.026501583086421521
0
LWPOLYLINE
5
114
100
AcDbEntity
8
0
100
AcDbPolyline
90
4
70
1
43
0.0
10
0.85963937112524569
20
0.17349841691357845
10
1.0596393711252456
20
0.17349841691357845
10
1.0596393711252456
20
-0.026501583086421521
10
0.85963937112524569
20
-0.026501583086421521
0
LWPOLYLINE
5
115
100
AcDbEntity
8
0
100
AcDbPolyline
90
4
70
1
43
0.0
10
-6.6849999457456937
20
-0.30364776819788925
10
-6.6849999457456937
20
-0.50364776819788926
10
-6.884999945745693
20
-0.50364776819788926
10
-6.884999945745693
20
-0.30364776819788925
0
LWPOLYLINE
5
116
100
AcDbEntity
8
0
100
AcDbPolyline
90
4
70
1
43
0.0
10
-6.0399999457456932
20
-0.30364776819788925
10
-6.0399999457456932
20
-0.50364776819788926
10
-6.2399999457456934
20
-0.50364776819788926
10
-6.2399999457456934
20
-0.30364776819788925
0
LWPOLYLINE
5
117
100
AcDbEntity
8
0
100
AcDbPolyline
90
4
70
1
43
0.0
10
-5.3949999457456927
20
-0.30364776819788925
10
-5.3949999457456927
20
-0.50364776819788926
10
-5.5949999457456929
20
-0.50364776819788926
10
-5.5949999457456929
20
-0.30364776819788925
0
LWPOLYLINE
5
118
100
AcDbEntity
8
0
100
AcDbPolyline
90
4
70
1
43
0.0
10
-4.7499999457456941
20
-0.30364776819788925
10
-4.7499999457456941
20
-0.50364776819788926
10
-4.9499999457456934
20
-0.50364776819788926
10
-4.9499999457456934
20
-0.30364776819788925
0
LWPOLYLINE
5
119
100
AcDbEntity
8
0
100
AcDbPolyline
90
4
70
1
43
0.0
10
-4.1049999457456936
20
-0.30364776819788925
10
-4.1049999457456936
20
-0.50364776819788926
10
-4.3049999457456938
20
-0.50364776819788926
10
-4.3049999457456938
20
-0.30364776819788925
0
LWPOLYLINE
5
120
100
AcDbEntity
8
0
100
AcDbPolyline
90
4
70
1
43
0.0
10
-3.4599999457456936
20
-0.30364776819788925
10
-3.4599999457456936
20
-0.50364776819788926
10
-3.6599999457456929
20
-0.50364776819788926
10
-3.6599999457456929
20
-0.30364776819788925
0
LWPOLYLINE
5
121
100
AcDbEntity
8
0
100
AcDbPolyline
90
4
70
1
43
0.0
10
-2.8149999457456927
20
-0.30364776819788925
10
-2.8149999457456927
20
-0.50364776819788926
10
-3.0149999457456929
20
-0.50364776819788926
10
-3.0149999457456929
20
-0.30364776819788925
0
LWPOLYLINE
5
122
100
AcDbEntity
8
0
100
AcDbPolyline
90
4
70
1
43
0.0
10
-2.1699999457456931
20
-0.30364776819788925
10
-2.1699999457456931
20
-0.50364776819788926
10
-2.3699999457456928
20
-0.50364776819788926
10
-2.3699999457456928
20
-0.30364776819788925
0
LWPOLYLINE
5
123
100
AcDbEntity
8
0
100
AcDbPolyline
90
4
70
1
43
0.0
10
-1.5249999457456935
20
-0.30364776819788925
10
-1.5249999457456935
20
-0.50364776819788926
10
-1.7249999457456937
20
-0.50364776819788926
10
-1.7249999457456937
20
-0.30364776819788925
0
LWPOLYLINE
5
124
100
AcDbEntity
8
0
100
AcDbPolyline
90
4
70
1
43
0.0
10
-0.87999994574569318
20
-0.30364776819788925
10
-0.87999994574569318
20
-0.50364776819788926
10
-1.079999945745693
20
-0.50364776819788926
10
-1.079999945745693
20
-0.30364776819788925
0
LWPOLYLINE
5
125
100
AcDbEntity
8
0
100
AcDbPolyline
90
4
70
1
43
0.0
10
-0.23499994574569316
20
-0.30364776819788925
10
-0.23499994574569316
20
-0.50364776819788926
10
-0.43499994574569312
20
-0.50364776819788926
10
-0.43499994574569312
20
-0.30364776819788925
0
LWPOLYLINE
5
126
100
AcDbEntity
8
0
100
AcDbPolyline
90
4
70
1
43
0.0
10
0.4100000542543068
20
-0.30364776819788925
10
0.4100000542543068
20
-0.50364776819788926
10
0.21000005425430684
20
-0.50364776819788926
10
0.21000005425430684
20
-0.30364776819788925
0
LWPOLYLINE
5
127
100
AcDbEntity
8
0
100
AcDbPolyline
90
4
70
1
43
0.0
10
1.0550000542543068
20
-0.30364776819788925
10
1.0550000542543068
20
-0.50364776819788926
10
0.85500005425430681
20
-0.50364776819788926
10
0.85500005425430681
20
-0.30364776819788925
0
LWPOLYLINE
5
128
100
AcDbEntity
8
0
100
AcDbPolyline
90
4
70
1
43
0.0
10
-6.6199999457456942
20
-0.77002581809562931
10
-6.6199999457456942
20
-0.97002581809562927
10
-6.8199999457456935
20
-0.97002581809562927
10
-6.8199999457456935
20
-0.77002581809562931
0
LWPOLYLINE
5
129
100
AcDbEntity
8
0
100
AcDbPolyline
90
4
70
1
43
0.0
10
-5.9799999457456936
20
-0.77002581809562931
10
-5.9799999457456936
20
-0.97002581809562927
10
-6.1799999457456929
20
-0.97002581809562927
10
-6.1799999457456929
20
-0.77002581809562931
0
LWPOLYLINE
5
130
100
AcDbEntity
8
0
100
AcDbPolyline
90
4
70
1
43
0.0
10
-5.3399999457456939
20
-0.77002581809562931
10
-5.3399999457456939
20
-0.97002581809562927
10
-5.5399999457456932
20
-0.97002581809562927
10
-5.5399999457456932
20
-0.77002581809562931
0
LWPOLYLINE
5
131
100
AcDbEntity
8
0
100
AcDbPolyline
90
4
70
1
43
0.0
10
-4.6999999457456934
20
-0.77002581809562931
10
-4.6999999457456934
20
-0.97002581809562927
10
-4.8999999457456926
20
-0.97002581809562927
10
-4.8999999457456926
20
-0.77002581809562931
0
LWPOLYLINE
5
132
100
AcDbEntity
8
0
100
AcDbPolyline
90
4
70
1
43
0.0
10
-4.0599999457456937
20
-0.77002581809562931
10
-4.0599999457456937
20
-0.97002581809562927
10
-4.259999945745693
20
-0.97002581809562927
10
-4.259999945745693
20
-0.77002581809562931
0
LWPOLYLINE
5
133
100
AcDbEntity
8
0
100
AcDbPolyline
90
4
70
1
43
0.0
10
-3.4199999457456931
20
-0.77002581809562931
10
-3.4199999457456931
20
-0.97002581809562927
10
-3.6199999457456924
20
-0.97002581809562927
10
-3.6199999457456924
20
-0.77002581809562931
0
LWPOLYLINE
5
134
100
AcDbEntity
8
0
100
AcDbPolyline
90
4
70
1
43
0.0
10
-2.779999945745693
20
-0.77002581809562931
10
-2.779999945745693
20
-0.97002581809562927
10
-2.9799999457456936
20
-0.97002581809562927
10
-2.9799999457456936
20
-0.77002581809562931
0
LWPOLYLINE
5
135
100
AcDbEntity
8
0
100
AcDbPolyline
90
4
70
1
43
0.0
10
0.40963937112524568
20
0.47349841691357847
10
0.19963937112524557
20
0.47349841691357847
10
0.19963937112524557
20
0.6834984169135786
10
0.40963937112524568
20
0.6834984169135786
0
CIRCLE
5
136
100
AcDbEntity
8
0
100
AcDbCircle
10
-6.9513005468707041
20
1.9121412767288086
30
0
40
0.16500000000000009
210
0
220
-0
230
1
0
LWPOLYLINE
5
137
100
AcDbEntity
8
0
100
AcDbPolyline
90
4
70
1
43
0.0
10
-9.2542541636462126
20
1.294364037963297
10
-7.2740269323183497
20
1.2946267940370362
10
-7.2738441387682293
20
-1.4553371167316049
10
-9.2538441162201863
20
-1.4556359314659955
0
CIRCLE
5
138
100
AcDbEntity
8
0
100
AcDbCircle
10
-8.7413005311127971
20
1.9119037618818244
30
0
40
0.16999999999999962
210
0
220
-0
230
1
0
CIRCLE
5
139
100
AcDbEntity
8
0
100
AcDbCircle
10
-7.8513005389477319
20
1.9120218558560227
30
0
40
0.16750000000000057
210
0
220
-0
230
1
0
CIRCLE
5
140
100
AcDbEntity
8
0
100
AcDbCircle
10
-9.6213005233658926
20
1.9117869948062081
30
0
40
0.17500000000000054
210
0
220
-0
230
1
0
LWPOLYLINE
5
141
100
AcDbEntity
8
0
100
AcDbPolyline
90
4
70
1
43
0.0
10
-4.0773606288747546
20
1.4734984169135783
10
-4.2773606288747539
20
1.4734984169135783
10
-4.2773606288747539
20
1.6734984169135783
10
-4.0773606288747546
20
1.6734984169135783
0
LWPOLYLINE
5
142
100
AcDbEntity
8
0
100
AcDbPolyline
90
4
70
1
43
0.0
10
-3.4343606288747539
20
1.4734984169135783
10
-3.6343606288747536
20
1.4734984169135783
10
-3.6343606288747536
20
1.6734984169135783
10
-3.4343606288747539
20
1.6734984169135783
0
LWPOLYLINE
5
143
100
AcDbEntity
8
0
100
AcDbPolyline
90
4
70
1
43
0.0
10
-0.24536062887475424
20
0.47349841691357847
10
-0.45536062887475437
20
0.47349841691357847
10
-0.45536062887475437
20
0.6834984169135786
10
-0.24536062887475424
20
0.6834984169135786
0
LWPOLYLINE
5
144
100
AcDbEntity
8
0
100
AcDbPolyline
90
4
70
1
43
0.0
10
-0.90036062887475432
20
0.47349841691357847
10
-1.1103606288747545
20
0.47349841691357847
10
-1.1103606288747545
20
0.6834984169135786
10
-0.90036062887475432
20
0.6834984169135786
0
LWPOLYLINE
5
145
100
AcDbEntity
8
0
100
AcDbPolyline
90
4
70
1
43
0.0
10
-1.5553606288747541
20
0.47349841691357847
10
-1.7653606288747539
20
0.47349841691357847
10
-1.7653606288747539
20
0.6834984169135786
10
-1.5553606288747541
20
0.6834984169135786
0
LWPOLYLINE
5
146
100
AcDbEntity
8
0
100
AcDbPolyline
90
4
70
1
43
0.0
10
-2.2103606288747546
20
0.47349841691357847
10
-2.4203606288747546
20
0.47349841691357847
10
-2.4203606288747546
20
0.6834984169135786
10
-2.2103606288747546
20
0.6834984169135786
0
LWPOLYLINE
5
147
100
AcDbEntity
8
0
100
AcDbPolyline
90
4
70
1
43
0.0
10
-2.865360628874754
20
0.47349841691357847
10
-3.0753606288747539
20
0.47349841691357847
10
-3.0753606288747539
20
0.6834984169135786
10
-2.865360628874754
20
0.6834984169135786
0
LWPOLYLINE
5
148
100
AcDbEntity
8
0
100
AcDbPolyline
90
4
70
1
43
0.0
10
-3.5203606288747542
20
0.47349841691357847
10
-3.7303606288747546
20
0.47349841691357847
10
-3.7303606288747546
20
0.6834984169135786
10
-3.5203606288747542
20
0.6834984169135786
0
LWPOLYLINE
5
149
100
AcDbEntity
8
0
100
AcDbPolyline
90
4
70
1
43
0.0
10
-4.1753606288747536
20
0.47349841691357847
10
-4.3853606288747535
20
0.47349841691357847
10
-4.3853606288747535
20
0.6834984169135786
10
-4.1753606288747536
20
0.6834984169135786
0
LWPOLYLINE
5
150
100
AcDbEntity
8
0
100
AcDbPolyline
90
4
70
1
43
0.0
10
-4.8303606288747529
20
0.47349841691357847
10
-5.0403606288747529
20
0.47349841691357847
10
-5.0403606288747529
20
0.6834984169135786
10
-4.8303606288747529
20
0.6834984169135786
0
LWPOLYLINE
5
151
100
AcDbEntity
8
0
100
AcDbPolyline
90
4
70
1
43
0.0
10
-5.4853606288747541
20
0.47349841691357847
10
-5.695360628874754
20
0.47349841691357847
10
-5.695360628874754
20
0.6834984169135786
10
-5.4853606288747541
20
0.6834984169135786
0
LWPOLYLINE
5
152
100
AcDbEntity
8
0
100
AcDbPolyline
90
4
70
1
43
0.0
10
-6.1403606288747534
20
0.47349841691357847
10
-6.3503606288747534
20
0.47349841691357847
10
-6.3503606288747534
20
0.6834984169135786
10
-6.1403606288747534
20
0.6834984169135786
0
LWPOLYLINE
5
153
100
AcDbEntity
8
0
100
AcDbPolyline
90
4
70
1
43
0.0
10
-6.7953606288747546
20
0.47349841691357847
10
-7.0053606288747554
20
0.47349841691357847
10
-7.0053606288747554
20
0.6834984169135786
10
-6.7953606288747554
20
0.6834984169135786
0
LWPOLYLINE
5
154
100
AcDbEntity
8
0
100
AcDbPolyline
90
4
70
1
43
0.0
10
1.0665624480483227
20
1.1734984169135785
10
1.0665624480483227
20
0.97349841691357819
10
0.86656244804832272
20
0.97349841691357819
10
0.86656244804832272
20
1.1734984169135785
0
LWPOLYLINE
5
155
100
AcDbEntity
8
0
100
AcDbPolyline
90
4
70
1
43
0.0
10
0.42348552497139963
20
1.1734984169135785
10
0.42348552497139963
20
0.97349841691357819
10
0.22348552497139967
20
0.97349841691357819
10
0.22348552497139967
20
1.1734984169135785
0
LWPOLYLINE
5
156
100
AcDbEntity
8
0
100
AcDbPolyline
90
4
70
1
43
0.0
10
-0.21959139810552342
20
1.1734984169135785
10
-0.21959139810552342
20
0.97349841691357819
10
-0.41959139810552343
20
0.97349841691357819
10
-0.41959139810552343
20
1.1734984169135785
0
LWPOLYLINE
5
157
100
AcDbEntity
8
0
100
AcDbPolyline
90
4
70
1
43
0.0
10
-0.8626683211824463
20
1.1734984169135785
10
-0.8626683211824463
20
0.97349841691357819
10
-1.0626683211824464
20
0.97349841691357819
10
-1.0626683211824464
20
1.1734984169135785
0
LWPOLYLINE
5
158
100
AcDbEntity
8
0
100
AcDbPolyline
90
4
70
1
43
0.0
10
-1.5057452442593695
20
1.1734984169135785
10
-1.5057452442593695
20
0.97349841691357819
10
-1.7057452442593692
20
0.97349841691357819
10
-1.7057452442593692
20
1.1734984169135785
0
LWPOLYLINE
5
159
100
AcDbEntity
8
0
100
AcDbPolyline
90
4
70
1
43
0.0
10
-2.1488221673362924
20
1.1734984169135785
10
-2.1488221673362924
20
0.97349841691357819
10
-2.3488221673362926
20
0.97349841691357819
10
-2.3488221673362926
20
1.1734984169135785
0
LWPOLYLINE
5
160
100
AcDbEntity
8
0
100
AcDbPolyline
90
4
70
1
43
0.0
10
-2.7918990904132155
20
1.1734984169135785
10
-2.7918990904132155
20
0.97349841691357819
10
-2.9918990904132148
20
0.97349841691357819
10
-2.9918990904132148
20
1.1734984169135785
0
LWPOLYLINE
5
161
100
AcDbEntity
8
0
100
AcDbPolyline
90
4
70
1
43
0.0
10
-3.4349760134901386
20
1.1734984169135785
10
-3.4349760134901386
20
0.97349841691357819
10
-3.6349760134901383
20
0.97349841691357819
10
-3.6349760134901383
20
1.1734984169135785
0
LWPOLYLINE
5
162
100
AcDbEntity
8
0
100
AcDbPolyline
90
4
70
1
43
0.0
10
-4.0780529365670608
20
1.1734984169135785
10
-4.0780529365670608
20
0.97349841691357819
10
-4.2780529365670601
20
0.97349841691357819
10
-4.2780529365670601
20
1.1734984169135785
0
LWPOLYLINE
5
163
100
AcDbEntity
8
0
100
AcDbPolyline
90
4
70
1
43
0.0
10
-4.7211298596439839
20
1.1734984169135785
10
-4.7211298596439839
20
0.97349841691357819
10
-4.9211298596439841
20
0.97349841691357819
10
-4.9211298596439841
20
1.1734984169135785
0
LWPOLYLINE
5
164
100
AcDbEntity
8
0
100
AcDbPolyline
90
4
70
1
43
0.0
10
-5.3642067827209061
20
1.1734984169135785
10
-5.3642067827209061
20
0.97349841691357819
10
-5.5642067827209063
20
0.97349841691357819
10
-5.5642067827209063
20
1.1734984169135785
0
LWPOLYLINE
5
165
100
AcDbEntity
8
0
100
AcDbPolyline
90
4
70
1
43
0.0
10
-6.0072837057978301
20
1.1734984169135785
10
-6.0072837057978301
20
0.97349841691357819
10
-6.2072837057978294
20
0.97349841691357819
10
-6.2072837057978294
20
1.1734984169135785
0
LWPOLYLINE
5
166
100
AcDbEntity
8
0
100
AcDbPolyline
90
4
70
1
43
0.0
10
-6.6503606288747523
20
1.1734984169135785
10
-6.6503606288747523
20
0.97349841691357819
10
-6.8503606288747516
20
0.97349841691357819
10
-6.8503606288747516
20
1.1734984169135785
0
LWPOLYLINE
5
167
100
AcDbEntity
8
0
100
AcDbPolyline
90
4
70
1
43
0.0
10
1.5096393711252456
20
1.4734984169135783
10
1.5096393711252456
20
1.6734984169135783
10
1.7096393711252456
20
1.6734984169135783
10
1.7096393711252456
20
1.4734984169135783
0
LWPOLYLINE
5
168
100
AcDbEntity
8
0
100
AcDbPolyline
90
4
70
1
43
0.0
10
1.0666393711252455
20
1.4734984169135783
10
0.86663937112524558
20
1.4734984169135783
10
0.86663937112524558
20
1.6734984169135783
10
1.0666393711252455
20
1.6734984169135783
0
LWPOLYLINE
5
169
100
AcDbEntity
8
0
100
AcDbPolyline
90
4
70
1
43
0.0
10
0.42363937112524563
20
1.4734984169135783
10
0.22363937112524562
20
1.4734984169135783
10
0.22363937112524562
20
1.6734984169135783
10
0.42363937112524563
20
1.6734984169135783
0
LWPOLYLINE
5
170
100
AcDbEntity
8
0
100
AcDbPolyline
90
4
70
1
43
0.0
10
-0.21936062887475455
20
1.4734984169135783
10
-0.41936062887475456
20
1.4734984169135783
10
-0.41936062887475456
20
1.6734984169135783
10
-0.21936062887475455
20
1.6734984169135783
0
LWPOLYLINE
5
171
100
AcDbEntity
8
0
100
AcDbPolyline
90
4
70
1
43
0.0
10
-0.8623606288747544
20
1.4734984169135783
10
-1.0623606288747545
20
1.4734984169135783
10
-1.0623606288747545
20
1.6734984169135783
10
-0.8623606288747544
20
1.6734984169135783
0
LWPOLYLINE
5
172
100
AcDbEntity
8
0
100
AcDbPolyline
90
4
70
1
43
0.0
10
-1.5053606288747541
20
1.4734984169135783
10
-1.7053606288747538
20
1.4734984169135783
10
-1.7053606288747538
20
1.6734984169135783
10
-1.5053606288747541
20
1.6734984169135783
0
LWPOLYLINE
5
173
100
AcDbEntity
8
0
100
AcDbPolyline
90
4
70
1
43
0.0
10
-2.1483606288747548
20
1.4734984169135783
10
-2.3483606288747545
20
1.4734984169135783
10
-2.3483606288747545
20
1.6734984169135783
10
-2.1483606288747548
20
1.6734984169135783
0
LWPOLYLINE
5
174
100
AcDbEntity
8
0
100
AcDbPolyline
90
4
70
1
43
0.0
10
-2.7913606288747546
20
1.4734984169135783
10
-2.9913606288747547
20
1.4734984169135783
10
-2.9913606288747547
20
1.6734984169135783
10
-2.7913606288747546
20
1.6734984169135783
0
LWPOLYLINE
5
175
100
AcDbEntity
8
0
100
AcDbPolyline
90
4
70
1
43
0.0
10
-1.0399999457456934
20
-1.4000000446800172
10
-1.0399999457456934
20
-1.200000044680017
10
-0.83999994574569337
20
-1.200000044680017
10
-0.83999994574569337
20
-1.4000000446800172
0
LWPOLYLINE
5
176
100
AcDbEntity
8
0
100
AcDbPolyline
90
4
70
1
43
0.0
10
-1.6749999457456934
20
-1.4000000446800172
10
-1.6749999457456934
20
-1.200000044680017
10
-1.4749999457456935
20
-1.200000044680017
10
-1.4749999457456935
20
-1.4000000446800172
0
LWPOLYLINE
5
177
100
AcDbEntity
8
0
100
AcDbPolyline
90
4
70
1
43
0.0
10
0.86500005425430659
20
-1.4000000446800172
10
0.86500005425430659
20
-1.200000044680017
10
1.0650000542543065
20
-1.200000044680017
10
1.0650000542543065
20
-1.4000000446800172
0
LWPOLYLINE
5
178
100
AcDbEntity
8
0
100
AcDbPolyline
90
4
70
1
43
0.0
10
0.23000005425430656
20
-1.4000000446800172
10
0.23000005425430656
20
-1.200000044680017
10
0.43000005425430654
20
-1.200000044680017
10
0.43000005425430654
20
-1.4000000446800172
0
LWPOLYLINE
5
179
100
AcDbEntity
8
0
100
AcDbPolyline
90
4
70
1
43
0.0
10
-0.40499994574569348
20
-1.4000000446800172
10
-0.40499994574569348
20
-1.200000044680017
10
-0.2049999457456935
20
-1.200000044680017
10
-0.2049999457456935
20
-1.4000000446800172
0
LWPOLYLINE
5
180
100
AcDbEntity
8
0
100
AcDbPolyline
90
4
70
1
43
0.0
10
-1.499999945745693
20
-0.77002581809562931
10
-1.499999945745693
20
-0.97002581809562927
10
-1.6999999457456934
20
-0.97002581809562927
10
-1.6999999457456934
20
-0.77002581809562931
0
LWPOLYLINE
5
181
100
AcDbEntity
8
0
100
AcDbPolyline
90
4
70
1
43
0.0
10
0.42000005425430675
20
-0.77002581809562931
10
0.42000005425430675
20
-0.97002581809562927
10
0.2200000542543068
20
-0.97002581809562927
10
0.2200000542543068
20
-0.77002581809562931
0
LWPOLYLINE
5
182
100
AcDbEntity
8
0
100
AcDbPolyline
90
4
70
1
43
0.0
10
1.0600000542543067
20
-0.77002581809562931
10
1.0600000542543067
20
-0.97002581809562927
10
0.8600000542543067
20
-0.97002581809562927
10
0.8600000542543067
20
-0.77002581809562931
0
LWPOLYLINE
5
183
100
AcDbEntity
8
0
100
AcDbPolyline
90
4
70
1
43
0.0
10
-2.1399999457456933
20
-0.77002581809562931
10
-2.1399999457456933
20
-0.97002581809562927
10
-2.3399999457456926
20
-0.97002581809562927
10
-2.3399999457456926
20
-0.77002581809562931
0
LWPOLYLINE
5
184
100
AcDbEntity
8
0
100
AcDbPolyline
90
4
70
1
43
0.0
10
1.7096393711252456
20
0.97349841691357819
10
1.5096393711252456
20
0.97349841691357819
10
1.5096393711252456
20
1.1734984169135785
10
1.7096393711252456
20
1.1734984169135785
0
LWPOLYLINE
5
185
100
AcDbEntity
8
0
100
AcDbPolyline
90
4
70
1
43
0.0
10
1.7196393711252458
20
0.6834984169135786
10
1.7196393711252458
20
0.47349841691357847
10
1.5096393711252456
20
0.47349841691357847
10
1.5096393711252456
20
0.6834984169135786
0
LWPOLYLINE
5
186
100
AcDbEntity
8
0
100
AcDbPolyline
90
4
70
1
43
0.0
10
1.5096393711252456
20
0.17349841691357845
10
1.7096393711252456
20
0.17349841691357845
10
1.7096393711252456
20
-0.026501583086421521
10
1.5096393711252456
20
-0.026501583086421521
0
LWPOLYLINE
5
187
100
AcDbEntity
8
0
100
AcDbPolyline
90
4
70
1
43
0.0
10
1.5000000542543068
20
-0.50364776819788926
10
1.5000000542543068
20
-0.30364776819788925
10
1.7000000542543068
20
-0.30364776819788925
10
1.7000000542543068
20
-0.50364776819788926
0
LWPOLYLINE
5
188
100
AcDbEntity
8
0
100
AcDbPolyline
90
4
70
1
43
0.0
10
1.7000000542543068
20
-0.77002581809562931
10
1.7000000542543068
20
-0.97002581809562927
10
1.5000000542543068
20
-0.97002581809562927
10
1.5000000542543068
20
-0.77002581809562931
0
LWPOLYLINE
5
189
100
AcDbEntity
8
0
100
AcDbPolyline
90
4
70
1
43
0.0
10
-6.7549999457456931
20
-1.4000000446800172
10
-6.7549999457456931
20
-1.200000044680017
10
-6.5549999457456929
20
-1.200000044680017
10
-6.5549999457456929
20
-1.4000000446800172
0
LWPOLYLINE
5
190
100
AcDbEntity
8
0
100
AcDbPolyline
90
4
70
1
43
0.0
10
-6.1199999457456933
20
-1.4000000446800172
10
-6.1199999457456933
20
-1.200000044680017
10
-5.9199999457456931
20
-1.200000044680017
10
-5.9199999457456931
20
-1.4000000446800172
0
LWPOLYLINE
5
191
100
AcDbEntity
8
0
100
AcDbPolyline
90
4
70
1
43
0.0
10
-5.4849999457456926
20
-1.4000000446800172
10
-5.4849999457456926
20
-1.200000044680017
10
-5.2849999457456933
20
-1.200000044680017
10
-5.2849999457456933
20
-1.4000000446800172
0
LWPOLYLINE
5
192
100
AcDbEntity
8
0
100
AcDbPolyline
90
4
70
1
43
0.0
10
-0.85999994574569327
20
-0.77002581809562931
10
-0.85999994574569327
20
-0.97002581809562927
10
-1.0599999457456932
20
-0.97002581809562927
10
-1.0599999457456932
20
-0.77002581809562931
0
LWPOLYLINE
5
193
100
AcDbEntity
8
0
100
AcDbPolyline
90
4
70
1
43
0.0
10
-0.21999994574569315
20
-0.77002581809562931
10
-0.21999994574569315
20
-0.97002581809562927
10
-0.4199999457456931
20
-0.97002581809562927
10
-0.4199999457456931
20
-0.77002581809562931
0
LWPOLYLINE
5
194
100
AcDbEntity
8
0
100
AcDbPolyline
90
4
70
1
43
0.0
10
-2.3099999457456932
20
-1.4000000446800172
10
-2.3099999457456932
20
-1.200000044680017
10
-2.1099999457456931
20
-1.200000044680017
10
-2.1099999457456931
20
-1.4000000446800172
0
LWPOLYLINE
5
195
100
AcDbEntity
8
0
100
AcDbPolyline
90
4
70
1
43
0.0
10
-4.214999945745693
20
-1.4000000446800172
10
-4.214999945745693
20
-1.200000044680017
10
-4.0149999457456937
20
-1.200000044680017
10
-4.014999945745692
20
-1.4000000446800172
0
LWPOLYLINE
5
196
100
AcDbEntity
8
0
100
AcDbPolyline
90
4
70
1
43
0.0
10
-2.9449999457456935
20
-1.4000000446800172
10
-2.9449999457456935
20
-1.200000044680017
10
-2.7449999457456928
20
-1.200000044680017
10
-2.7449999457456928
20
-1.4000000446800172
0
LWPOLYLINE
5
197
100
AcDbEntity
8
0
100
AcDbPolyline
90
4
70
1
43
0.0
10
-4.8499999457456928
20
-1.4000000446800172
10
-4.8499999457456928
20
-1.200000044680017
10
-4.6499999457456935
20
-1.200000044680017
10
-4.6499999457456935
20
-1.4000000446800172
0
LWPOLYLINE
5
198
100
AcDbEntity
8
0
100
AcDbPolyline
90
4
70
1
43
0.0
10
-3.5799999457456937
20
-1.4000000446800172
10
-3.5799999457456937
20
-1.200000044680017
10
-3.379999945745694
20
-1.200000044680017
10
-3.3799999457456926
20
-1.4000000446800172
0
LWPOLYLINE
5
199
100
AcDbEntity
8
0
100
AcDbPolyline
90
4
70
1
43
0.0
10
-10.000000319142984
20
-1.7154663458972621
10
1.9485072862058495
20
-1.7154663458972621
10
1.9485072862058495
20
2.3000000734028854
10
-10.000000319142984
20
2.3000000734028854
0
ENDSEC
0
SECTION
2
OBJECTS
0
DICTIONARY
5
C
100
AcDbDictionary
3
ACAD_GROUP
350
D
3
ACAD_MLINESTYLE
350
17
0
DICTIONARY
5
D
100
AcDbDictionary
0
DICTIONARY
5
1A
330
C
100
AcDbDictionary
0
DICTIONARY
5
17
100
AcDbDictionary
0
ENDSEC
0
EOF
