0
SECTION
2
HEADER
9
$INSUNITS
70
1
9
$ACADVER
1
AC1014
9
$HANDSEED
5
FFFF
0
ENDSEC
0
SECTION
2
TABLES
0
TABLE
2
VPORT
5
8
100
AcDbSymbolTable
0
ENDTAB
0
TABLE
2
LTYPE
5
5
100
AcDbSymbolTable
0
LTYPE
5
14
100
AcDbSymbolTableRecord
100
AcDbLinetypeTableRecord
2
BYBLOCK
70
0
0
LTYPE
5
15
100
AcDbSymbolTableRecord
100
AcDbLinetypeTableRecord
2
BYLAYER
70
0
0
ENDTAB
0
TABLE
2
LAYER
5
2
100
AcDbSymbolTable
70
2
0
LAYER
5
50
100
AcDbSymbolTableRecord
100
AcDbLayerTableRecord
2
0
70
0
6
CONTINUOUS
0
ENDTAB
0
TABLE
2
STYLE
5
3
100
AcDbSymbolTable
70
1
0
STYLE
5
11
100
AcDbSymbolTableRecord
100
AcDbTextStyleTableRecord
2
STANDARD
70
0
0
ENDTAB
0
TABLE
2
VIEW
5
6
100
AcDbSymbolTable
70
0
0
ENDTAB
0
TABLE
2
UCS
5
7
100
AcDbSymbolTable
70
0
0
ENDTAB
0
TABLE
2
APPID
5
9
100
AcDbSymbolTable
70
2
0
APPID
5
12
100
AcDbSymbolTableRecord
100
AcDbRegAppTableRecord
2
ACAD
70
0
0
ENDTAB
0
TABLE
2
DIMSTYLE
5
A
100
AcDbSymbolTable
70
1
0
ENDTAB
0
TABLE
2
BLOCK_RECORD
5
1
100
AcDbSymbolTable
70
1
0
BLOCK_RECORD
5
1F
100
AcDbSymbolTableRecord
100
AcDbBlockTableRecord
2
*MODEL_SPACE
0
BLOCK_RECORD
5
1B
100
AcDbSymbolTableRecord
100
AcDbBlockTableRecord
2
*PAPER_SPACE
0
ENDTAB
0
ENDSEC
0
SECTION
2
BLOCKS
0
BLOCK
5
20
100
AcDbEntity
100
AcDbBlockBegin
2
*MODEL_SPACE
0
ENDBLK
5
21
100
AcDbEntity
100
AcDbBlockEnd
0
BLOCK
5
1C
100
AcDbEntity
100
AcDbBlockBegin
2
*PAPER_SPACE
0
ENDBLK
5
1D
100
AcDbEntity
100
AcDbBlockEnd
0
ENDSEC
0
SECTION
2
ENTITIES
0
LWPOLYLINE
5
100
100
AcDbEntity
8
0
100
AcDbPolyline
90
84
70
1
43
0.0
10
15.5558
20
3.0099999999999993
10
15.5558
20
2.8700000000000001
10
15.645799999999999
20
2.8700000000000001
10
15.645799999999999
20
2.7299999999999995
10
15.5558
20
2.7299999999999995
10
15.5558
20
2.4859999999999998
10
16.359400000000001
20
2.4859999999999998
10
16.359400000000001
20
2.2499999999999996
10
17.013999999999996
20
2.2499999999999996
10
17.013999999999996
20
2.8700000000000001
10
17.249999999999996
20
2.8700000000000001
10
17.249999999999996
20
3.1629999999999998
10
17.076000000000001
20
3.1629999999999998
10
17.076000000000001
20
3.3369999999999997
10
17.249999999999996
20
3.3369999999999997
10
17.249999999999996
20
3.6299999999999999
10
17.013999999999996
20
3.6299999999999999
10
17.013999999999996
20
4.25
10
16.359400000000001
20
4.25
10
16.359400000000001
20
4.0139999999999993
10
15.5558
20
4.0139999999999993
10
15.5558
20
3.77
10
15.645799999999999
20
3.77
10
15.645799999999999
20
3.6299999999999999
10
15.5558
20
3.6299999999999999
10
15.5558
20
3.4900000000000002
10
15.381799999999998
20
3.4900000000000002
10
15.381799999999998
20
3.6299999999999999
10
15.291799999999999
20
3.6299999999999999
10
15.291799999999999
20
3.77
10
15.381799999999998
20
3.77
10
15.381799999999998
20
4.0139999999999993
10
14.578099999999999
20
4.0139999999999993
10
14.578099999999999
20
4.25
10
12.796899999999999
20
4.25
10
12.796899999999999
20
4.0139999999999993
10
11.9933
20
4.0139999999999993
10
11.9933
20
3.77
10
12.083299999999999
20
3.77
10
12.083299999999999
20
3.6299999999999999
10
11.9933
20
3.6299999999999999
10
11.9933
20
3.4900000000000002
10
11.8193
20
3.4900000000000002
10
11.8193
20
3.6299999999999999
10
11.7293
20
3.6299999999999999
10
11.7293
20
3.77
10
11.8193
20
3.77
10
11.8193
20
4.0139999999999993
10
11.015599999999997
20
4.0139999999999993
10
11.015599999999997
20
4.25
10
10.360999999999999
20
4.25
10
10.360999999999999
20
3.6299999999999999
10
10.125
20
3.6299999999999999
10
10.125
20
3.3369999999999997
10
10.298999999999999
20
3.3369999999999997
10
10.298999999999999
20
3.1629999999999998
10
10.125
20
3.1629999999999998
10
10.125
20
2.8700000000000001
10
10.360999999999999
20
2.8700000000000001
10
10.360999999999999
20
2.2499999999999996
10
11.015599999999997
20
2.2499999999999996
10
11.015599999999997
20
2.4859999999999998
10
11.8193
20
2.4859999999999998
10
11.8193
20
2.7299999999999995
10
11.7293
20
2.7299999999999995
10
11.7293
20
2.8700000000000001
10
11.8193
20
2.8700000000000001
10
11.8193
20
3.0099999999999993
10
11.9933
20
3.0099999999999993
10
11.9933
20
2.8700000000000001
10
12.083299999999999
20
2.8700000000000001
10
12.083299999999999
20
2.7299999999999995
10
11.9933
20
2.7299999999999995
10
11.9933
20
2.4859999999999998
10
12.796899999999999
20
2.4859999999999998
10
12.796899999999999
20
2.2499999999999996
10
14.578099999999999
20
2.2499999999999996
10
14.578099999999999
20
2.4859999999999998
10
15.381799999999998
20
2.4859999999999998
10
15.381799999999998
20
2.7299999999999995
10
15.291799999999999
20
2.7299999999999995
10
15.291799999999999
20
2.8700000000000001
10
15.381799999999998
20
2.8700000000000001
10
15.381799999999998
20
3.0099999999999993
0
ENDSEC
0
SECTION
2
OBJECTS
0
DICTIONARY
5
C
100
AcDbDictionary
3
ACAD_GROUP
350
D
3
ACAD_MLINESTYLE
350
17
0
DICTIONARY
5
D
100
AcDbDictionary
0
DICTIONARY
5
1A
330
C
100
AcDbDictionary
0
DICTIONARY
5
17
100
AcDbDictionary
0
ENDSEC
0
EOF
