0
SECTION
2
HEADER
9
$INSUNITS
70
1
9
$ACADVER
1
AC1014
9
$HANDSEED
5
FFFF
0
ENDSEC
0
SECTION
2
TABLES
0
TABLE
2
VPORT
5
8
100
AcDbSymbolTable
0
ENDTAB
0
TABLE
2
LTYPE
5
5
100
AcDbSymbolTable
0
LTYPE
5
14
100
AcDbSymbolTableRecord
100
AcDbLinetypeTableRecord
2
BYBLOCK
70
0
0
LTYPE
5
15
100
AcDbSymbolTableRecord
100
AcDbLinetypeTableRecord
2
BYLAYER
70
0
0
ENDTAB
0
TABLE
2
LAYER
5
2
100
AcDbSymbolTable
70
2
0
LAYER
5
50
100
AcDbSymbolTableRecord
100
AcDbLayerTableRecord
2
0
70
0
6
CONTINUOUS
0
ENDTAB
0
TABLE
2
STYLE
5
3
100
AcDbSymbolTable
70
1
0
STYLE
5
11
100
AcDbSymbolTableRecord
100
AcDbTextStyleTableRecord
2
STANDARD
70
0
0
ENDTAB
0
TABLE
2
VIEW
5
6
100
AcDbSymbolTable
70
0
0
ENDTAB
0
TABLE
2
UCS
5
7
100
AcDbSymbolTable
70
0
0
ENDTAB
0
TABLE
2
APPID
5
9
100
AcDbSymbolTable
70
2
0
APPID
5
12
100
AcDbSymbolTableRecord
100
AcDbRegAppTableRecord
2
ACAD
70
0
0
ENDTAB
0
TABLE
2
DIMSTYLE
5
A
100
AcDbSymbolTable
70
1
0
ENDTAB
0
TABLE
2
BLOCK_RECORD
5
1
100
AcDbSymbolTable
70
1
0
BLOCK_RECORD
5
1F
100
AcDbSymbolTableRecord
100
AcDbBlockTableRecord
2
*MODEL_SPACE
0
BLOCK_RECORD
5
1B
100
AcDbSymbolTableRecord
100
AcDbBlockTableRecord
2
*PAPER_SPACE
0
ENDTAB
0
ENDSEC
0
SECTION
2
BLOCKS
0
BLOCK
5
20
100
AcDbEntity
100
AcDbBlockBegin
2
*MODEL_SPACE
0
ENDBLK
5
21
100
AcDbEntity
100
AcDbBlockEnd
0
BLOCK
5
1C
100
AcDbEntity
100
AcDbBlockBegin
2
*PAPER_SPACE
0
ENDBLK
5
1D
100
AcDbEntity
100
AcDbBlockEnd
0
ENDSEC
0
SECTION
2
ENTITIES
0
LWPOLYLINE
5
100
100
AcDbEntity
8
0
100
AcDbPolyline
90
100
70
1
43
0.0
10
9.7639999999999976
20
3.1629999999999998
10
9.5199999999999978
20
3.1629999999999998
10
9.5199999999999978
20
3.0729999999999995
10
9.3800000000000008
20
3.0729999999999995
10
9.3800000000000008
20
3.1629999999999998
10
9.2399999999999984
20
3.1629999999999998
10
9.2399999999999984
20
3.3369999999999997
10
9.3800000000000008
20
3.3369999999999997
10
9.3800000000000008
20
3.4269999999999996
10
9.5199999999999978
20
3.4269999999999996
10
9.5199999999999978
20
3.3369999999999997
10
9.7639999999999976
20
3.3369999999999997
10
9.7639999999999976
20
3.6299999999999999
10
9.9999999999999982
20
3.6299999999999999
10
9.9999999999999982
20
4.25
10
8.75
20
4.25
10
8.75
20
4.0139999999999993
10
7.5869999999999997
20
4.0139999999999993
10
7.5869999999999997
20
3.77
10
7.6769999999999996
20
3.77
10
7.6769999999999996
20
3.6299999999999999
10
7.5869999999999997
20
3.6299999999999999
10
7.5869999999999997
20
3.4900000000000002
10
7.4129999999999994
20
3.4900000000000002
10
7.4129999999999994
20
3.6299999999999999
10
7.3229999999999995
20
3.6299999999999999
10
7.3229999999999995
20
3.77
10
7.4129999999999994
20
3.77
10
7.4129999999999994
20
4.0139999999999993
10
6.2499999999999991
20
4.0139999999999993
10
6.2499999999999991
20
4.25
10
3.75
20
4.25
10
3.75
20
4.0139999999999993
10
2.5869999999999997
20
4.0139999999999993
10
2.5869999999999997
20
3.77
10
2.677
20
3.77
10
2.677
20
3.6299999999999999
10
2.5869999999999997
20
3.6299999999999999
10
2.5869999999999997
20
3.4900000000000002
10
2.4129999999999998
20
3.4900000000000002
10
2.4129999999999998
20
3.6299999999999999
10
2.3229999999999995
20
3.6299999999999999
10
2.3229999999999995
20
3.77
10
2.4129999999999998
20
3.77
10
2.4129999999999998
20
4.0139999999999993
10
1.2499999999999998
20
4.0139999999999993
10
1.2499999999999998
20
4.25
10
0
20
4.25
10
0
20
3.6299999999999999
10
0.23600000000000002
20
3.6299999999999999
10
0.23600000000000002
20
3.3369999999999997
10
0.47999999999999998
20
3.3369999999999997
10
0.47999999999999998
20
3.4269999999999996
10
0.61999999999999988
20
3.4269999999999996
10
0.61999999999999988
20
3.3369999999999997
10
0.76000000000000001
20
3.3369999999999997
10
0.76000000000000001
20
3.1629999999999998
10
0.61999999999999988
20
3.1629999999999998
10
0.61999999999999988
20
3.0729999999999995
10
0.47999999999999998
20
3.0729999999999995
10
0.47999999999999998
20
3.1629999999999998
10
0.23600000000000002
20
3.1629999999999998
10
0.23600000000000002
20
2.8700000000000001
10
0
20
2.8700000000000001
10
0
20
2.2499999999999996
10
1.2499999999999998
20
2.2499999999999996
10
1.2499999999999998
20
2.4859999999999998
10
2.4129999999999998
20
2.4859999999999998
10
2.4129999999999998
20
2.7299999999999995
10
2.3229999999999995
20
2.7299999999999995
10
2.3229999999999995
20
2.8700000000000001
10
2.4129999999999998
20
2.8700000000000001
10
2.4129999999999998
20
3.0099999999999993
10
2.5869999999999997
20
3.0099999999999993
10
2.5869999999999997
20
2.8700000000000001
10
2.677
20
2.8700000000000001
10
2.677
20
2.7299999999999995
10
2.5869999999999997
20
2.7299999999999995
10
2.5869999999999997
20
2.4859999999999998
10
3.75
20
2.4859999999999998
10
3.75
20
2.2499999999999996
10
6.2499999999999991
20
2.2499999999999996
10
6.2499999999999991
20
2.4859999999999998
10
7.4129999999999994
20
2.4859999999999998
10
7.4129999999999994
20
2.7299999999999995
10
7.3229999999999995
20
2.7299999999999995
10
7.3229999999999995
20
2.8700000000000001
10
7.4129999999999994
20
2.8700000000000001
10
7.4129999999999994
20
3.0099999999999993
10
7.5869999999999997
20
3.0099999999999993
10
7.5869999999999997
20
2.8700000000000001
10
7.6769999999999996
20
2.8700000000000001
10
7.6769999999999996
20
2.7299999999999995
10
7.5869999999999997
20
2.7299999999999995
10
7.5869999999999997
20
2.4859999999999998
10
8.75
20
2.4859999999999998
10
8.75
20
2.2499999999999996
10
9.9999999999999982
20
2.2499999999999996
10
9.9999999999999982
20
2.8700000000000001
10
9.7639999999999976
20
2.8700000000000001
0
ENDSEC
0
SECTION
2
OBJECTS
0
DICTIONARY
5
C
100
AcDbDictionary
3
ACAD_GROUP
350
D
3
ACAD_MLINESTYLE
350
17
0
DICTIONARY
5
D
100
AcDbDictionary
0
DICTIONARY
5
1A
330
C
100
AcDbDictionary
0
DICTIONARY
5
17
100
AcDbDictionary
0
ENDSEC
0
EOF
