0
SECTION
2
HEADER
9
$INSUNITS
70
1
9
$ACADVER
1
AC1014
9
$HANDSEED
5
FFFF
0
ENDSEC
0
SECTION
2
TABLES
0
TABLE
2
VPORT
5
8
100
AcDbSymbolTable
0
ENDTAB
0
TABLE
2
LTYPE
5
5
100
AcDbSymbolTable
0
LTYPE
5
14
100
AcDbSymbolTableRecord
100
AcDbLinetypeTableRecord
2
BYBLOCK
70
0
0
LTYPE
5
15
100
AcDbSymbolTableRecord
100
AcDbLinetypeTableRecord
2
BYLAYER
70
0
0
ENDTAB
0
TABLE
2
LAYER
5
2
100
AcDbSymbolTable
70
2
0
LAYER
5
50
100
AcDbSymbolTableRecord
100
AcDbLayerTableRecord
2
0
70
0
6
CONTINUOUS
0
ENDTAB
0
TABLE
2
STYLE
5
3
100
AcDbSymbolTable
70
1
0
STYLE
5
11
100
AcDbSymbolTableRecord
100
AcDbTextStyleTableRecord
2
STANDARD
70
0
0
ENDTAB
0
TABLE
2
VIEW
5
6
100
AcDbSymbolTable
70
0
0
ENDTAB
0
TABLE
2
UCS
5
7
100
AcDbSymbolTable
70
0
0
ENDTAB
0
TABLE
2
APPID
5
9
100
AcDbSymbolTable
70
2
0
APPID
5
12
100
AcDbSymbolTableRecord
100
AcDbRegAppTableRecord
2
ACAD
70
0
0
ENDTAB
0
TABLE
2
DIMSTYLE
5
A
100
AcDbSymbolTable
70
1
0
ENDTAB
0
TABLE
2
BLOCK_RECORD
5
1
100
AcDbSymbolTable
70
1
0
BLOCK_RECORD
5
1F
100
AcDbSymbolTableRecord
100
AcDbBlockTableRecord
2
*MODEL_SPACE
0
BLOCK_RECORD
5
1B
100
AcDbSymbolTableRecord
100
AcDbBlockTableRecord
2
*PAPER_SPACE
0
ENDTAB
0
ENDSEC
0
SECTION
2
BLOCKS
0
BLOCK
5
20
100
AcDbEntity
100
AcDbBlockBegin
2
*MODEL_SPACE
0
ENDBLK
5
21
100
AcDbEntity
100
AcDbBlockEnd
0
BLOCK
5
1C
100
AcDbEntity
100
AcDbBlockBegin
2
*PAPER_SPACE
0
ENDBLK
5
1D
100
AcDbEntity
100
AcDbBlockEnd
0
ENDSEC
0
SECTION
2
ENTITIES
0
LWPOLYLINE
5
100
100
AcDbEntity
8
0
100
AcDbPolyline
90
68
70
1
43
0.0
10
-24.787999999999997
20
-0.12499999999999999
10
-24.787999999999997
20
-0.29899999999999999
10
-24.962
20
-0.29899999999999999
10
-24.962
20
-0.12499999999999999
10
-26.125
20
-0.12499999999999999
10
-26.125
20
-0.36099999999999999
10
-27.138999999999996
20
-0.36099999999999999
10
-27.138999999999996
20
-1.0156000000000001
10
-27.374999999999996
20
-1.0156000000000001
10
-27.374999999999996
20
-1.8192999999999999
10
-27.201000000000001
20
-1.8192999999999999
10
-27.201000000000001
20
-1.9932999999999998
10
-27.374999999999996
20
-1.9932999999999998
10
-27.374999999999996
20
-2.7968999999999999
10
-27.138999999999996
20
-2.7968999999999999
10
-27.138999999999996
20
-4.5781000000000001
10
-27.374999999999996
20
-4.5781000000000001
10
-27.374999999999996
20
-5.3817999999999993
10
-27.201000000000001
20
-5.3817999999999993
10
-27.201000000000001
20
-5.5557999999999996
10
-27.374999999999996
20
-5.5557999999999996
10
-27.374999999999996
20
-6.3593999999999991
10
-27.138999999999996
20
-6.3593999999999991
10
-27.138999999999996
20
-7.0139999999999985
10
-26.125
20
-7.0139999999999985
10
-26.125
20
-7.2499999999999991
10
-24.962
20
-7.2499999999999991
10
-24.962
20
-7.0759999999999996
10
-24.787999999999997
20
-7.0759999999999996
10
-24.787999999999997
20
-7.2499999999999991
10
-23.624999999999996
20
-7.2499999999999991
10
-23.624999999999996
20
-7.0139999999999985
10
-21.124999999999996
20
-7.0139999999999985
10
-21.124999999999996
20
-7.2499999999999991
10
-19.961999999999996
20
-7.2499999999999991
10
-19.961999999999996
20
-7.0759999999999996
10
-19.788
20
-7.0759999999999996
10
-19.788
20
-7.2499999999999991
10
-18.624999999999996
20
-7.2499999999999991
10
-18.624999999999996
20
-7.0139999999999985
10
-17.611000000000001
20
-7.0139999999999985
10
-17.611000000000001
20
-6.3593999999999991
10
-17.375
20
-6.3593999999999991
10
-17.375
20
-5.5557999999999996
10
-17.548999999999999
20
-5.5557999999999996
10
-17.548999999999999
20
-5.3817999999999993
10
-17.375
20
-5.3817999999999993
10
-17.375
20
-4.5781000000000001
10
-17.611000000000001
20
-4.5781000000000001
10
-17.611000000000001
20
-2.7968999999999999
10
-17.375
20
-2.7968999999999999
10
-17.375
20
-1.9932999999999998
10
-17.548999999999999
20
-1.9932999999999998
10
-17.548999999999999
20
-1.8192999999999999
10
-17.375
20
-1.8192999999999999
10
-17.375
20
-1.0156000000000001
10
-17.611000000000001
20
-1.0156000000000001
10
-17.611000000000001
20
-0.36099999999999993
10
-18.624999999999996
20
-0.36099999999999999
10
-18.624999999999996
20
-0.12499999999999999
10
-19.788
20
-0.12499999999999999
10
-19.788
20
-0.29899999999999999
10
-19.961999999999996
20
-0.29899999999999999
10
-19.961999999999996
20
-0.12499999999999999
10
-21.124999999999996
20
-0.12499999999999999
10
-21.124999999999996
20
-0.36099999999999999
10
-23.624999999999996
20
-0.36099999999999999
10
-23.624999999999996
20
-0.12499999999999999
0
LWPOLYLINE
5
101
100
AcDbEntity
8
0
100
AcDbPolyline
90
4
70
1
43
0.0
10
-18.249999999999993
20
-0.8624999999999996
10
-18.249999999999993
20
-0.66249999999999953
10
-18.049999999999994
20
-0.66249999999999953
10
-18.050000000000004
20
-0.86249999999999816
0
LWPOLYLINE
5
102
100
AcDbEntity
8
0
100
AcDbPolyline
90
4
70
1
43
0.0
10
-18.699999999999996
20
-0.66249999999999953
10
-18.700000000000006
20
-0.86249999999999816
10
-18.899999999999995
20
-0.8624999999999996
10
-18.899999999999995
20
-0.66249999999999953
0
LWPOLYLINE
5
103
100
AcDbEntity
8
0
100
AcDbPolyline
90
4
70
1
43
0.0
10
-19.349999999999994
20
-0.66249999999999953
10
-19.350000000000005
20
-0.86249999999999816
10
-19.549999999999994
20
-0.8624999999999996
10
-19.549999999999994
20
-0.66249999999999953
0
LWPOLYLINE
5
104
100
AcDbEntity
8
0
100
AcDbPolyline
90
4
70
1
43
0.0
10
-19.999999999999993
20
-0.66249999999999953
10
-20.000000000000007
20
-0.86249999999999816
10
-20.199999999999996
20
-0.8624999999999996
10
-20.199999999999996
20
-0.66249999999999953
0
LWPOLYLINE
5
105
100
AcDbEntity
8
0
100
AcDbPolyline
90
4
70
1
43
0.0
10
-20.649999999999991
20
-0.66249999999999953
10
-20.650000000000006
20
-0.86249999999999816
10
-20.849999999999994
20
-0.8624999999999996
10
-20.849999999999994
20
-0.66249999999999953
0
LWPOLYLINE
5
106
100
AcDbEntity
8
0
100
AcDbPolyline
90
4
70
1
43
0.0
10
-21.299999999999994
20
-0.66249999999999953
10
-21.300000000000004
20
-0.86249999999999816
10
-21.499999999999996
20
-0.8624999999999996
10
-21.499999999999996
20
-0.66249999999999953
0
LWPOLYLINE
5
107
100
AcDbEntity
8
0
100
AcDbPolyline
90
4
70
1
43
0.0
10
-21.949999999999992
20
-0.66249999999999953
10
-21.950000000000003
20
-0.86249999999999816
10
-22.149999999999995
20
-0.8624999999999996
10
-22.149999999999995
20
-0.66249999999999953
0
LWPOLYLINE
5
108
100
AcDbEntity
8
0
100
AcDbPolyline
90
4
70
1
43
0.0
10
-22.599999999999994
20
-0.66249999999999953
10
-22.600000000000005
20
-0.86249999999999816
10
-22.799999999999994
20
-0.8624999999999996
10
-22.799999999999994
20
-0.66249999999999953
0
LWPOLYLINE
5
109
100
AcDbEntity
8
0
100
AcDbPolyline
90
4
70
1
43
0.0
10
-23.249999999999993
20
-0.66249999999999953
10
-23.250000000000004
20
-0.86249999999999816
10
-23.449999999999992
20
-0.8624999999999996
10
-23.449999999999992
20
-0.66249999999999953
0
LWPOLYLINE
5
110
100
AcDbEntity
8
0
100
AcDbPolyline
90
4
70
1
43
0.0
10
-23.899999999999995
20
-0.66249999999999953
10
-23.900000000000006
20
-0.86249999999999816
10
-24.099999999999994
20
-0.8624999999999996
10
-24.099999999999994
20
-0.66249999999999953
0
LWPOLYLINE
5
111
100
AcDbEntity
8
0
100
AcDbPolyline
90
4
70
1
43
0.0
10
-24.549999999999994
20
-0.66249999999999953
10
-24.550000000000004
20
-0.86249999999999816
10
-24.749999999999996
20
-0.8624999999999996
10
-24.749999999999996
20
-0.66249999999999953
0
LWPOLYLINE
5
112
100
AcDbEntity
8
0
100
AcDbPolyline
90
4
70
1
43
0.0
10
-25.199999999999992
20
-0.66249999999999953
10
-25.200000000000003
20
-0.86249999999999816
10
-25.399999999999995
20
-0.8624999999999996
10
-25.399999999999995
20
-0.66249999999999953
0
LWPOLYLINE
5
113
100
AcDbEntity
8
0
100
AcDbPolyline
90
4
70
1
43
0.0
10
-25.849999999999994
20
-0.66249999999999953
10
-25.850000000000005
20
-0.86249999999999816
10
-26.049999999999994
20
-0.8624999999999996
10
-26.049999999999994
20
-0.66249999999999953
0
LWPOLYLINE
5
114
100
AcDbEntity
8
0
100
AcDbPolyline
90
4
70
1
43
0.0
10
-26.499999999999993
20
-0.66249999999999953
10
-26.500000000000004
20
-0.86249999999999816
10
-26.699999999999996
20
-0.8624999999999996
10
-26.699999999999996
20
-0.66249999999999953
0
LWPOLYLINE
5
115
100
AcDbEntity
8
0
100
AcDbPolyline
90
4
70
1
43
0.0
10
-18.050000000000004
20
-1.512499999999998
10
-18.249999999999993
20
-1.5124999999999995
10
-18.249999999999993
20
-1.3124999999999996
10
-18.049999999999994
20
-1.3124999999999996
0
LWPOLYLINE
5
116
100
AcDbEntity
8
0
100
AcDbPolyline
90
4
70
1
43
0.0
10
-18.050000000000004
20
-2.1624999999999983
10
-18.249999999999993
20
-2.1624999999999996
10
-18.249999999999993
20
-1.9624999999999995
10
-18.049999999999994
20
-1.9624999999999995
0
LWPOLYLINE
5
117
100
AcDbEntity
8
0
100
AcDbPolyline
90
4
70
1
43
0.0
10
-18.050000000000004
20
-2.8124999999999982
10
-18.249999999999993
20
-2.8124999999999996
10
-18.249999999999993
20
-2.6124999999999994
10
-18.049999999999994
20
-2.6124999999999994
0
LWPOLYLINE
5
118
100
AcDbEntity
8
0
100
AcDbPolyline
90
4
70
1
43
0.0
10
-18.050000000000004
20
-3.4624999999999986
10
-18.249999999999993
20
-3.4624999999999999
10
-18.249999999999993
20
-3.2624999999999997
10
-18.049999999999994
20
-3.2624999999999997
0
LWPOLYLINE
5
119
100
AcDbEntity
8
0
100
AcDbPolyline
90
4
70
1
43
0.0
10
-18.050000000000004
20
-4.1124999999999989
10
-18.249999999999993
20
-4.1125000000000007
10
-18.249999999999993
20
-3.9125000000000001
10
-18.049999999999994
20
-3.9125000000000001
0
LWPOLYLINE
5
120
100
AcDbEntity
8
0
100
AcDbPolyline
90
4
70
1
43
0.0
10
-18.050000000000004
20
-4.7624999999999993
10
-18.249999999999993
20
-4.7625000000000002
10
-18.249999999999993
20
-4.5625
10
-18.049999999999994
20
-4.5625
0
LWPOLYLINE
5
121
100
AcDbEntity
8
0
100
AcDbPolyline
90
4
70
1
43
0.0
10
-18.050000000000004
20
-5.4124999999999988
10
-18.249999999999993
20
-5.4125000000000005
10
-18.249999999999993
20
-5.2124999999999995
10
-18.049999999999994
20
-5.2124999999999995
0
LWPOLYLINE
5
122
100
AcDbEntity
8
0
100
AcDbPolyline
90
4
70
1
43
0.0
10
-18.050000000000004
20
-6.0624999999999991
10
-18.249999999999993
20
-6.0625
10
-18.249999999999993
20
-5.8624999999999998
10
-18.049999999999994
20
-5.8624999999999998
0
LWPOLYLINE
5
123
100
AcDbEntity
8
0
100
AcDbPolyline
90
4
70
1
43
0.0
10
-18.050000000000004
20
-6.7124999999999977
10
-18.249999999999993
20
-6.7124999999999995
10
-18.249999999999993
20
-6.5124999999999993
10
-18.049999999999994
20
-6.5124999999999993
0
LWPOLYLINE
5
124
100
AcDbEntity
8
0
100
AcDbPolyline
90
4
70
1
43
0.0
10
-18.700000000000006
20
-6.7124999999999977
10
-18.899999999999995
20
-6.7124999999999995
10
-18.899999999999995
20
-6.5124999999999993
10
-18.699999999999996
20
-6.5124999999999993
0
LWPOLYLINE
5
125
100
AcDbEntity
8
0
100
AcDbPolyline
90
4
70
1
43
0.0
10
-19.350000000000005
20
-6.7124999999999977
10
-19.549999999999994
20
-6.7124999999999995
10
-19.549999999999994
20
-6.5124999999999993
10
-19.349999999999994
20
-6.5124999999999993
0
LWPOLYLINE
5
126
100
AcDbEntity
8
0
100
AcDbPolyline
90
4
70
1
43
0.0
10
-20.000000000000007
20
-6.7124999999999977
10
-20.199999999999996
20
-6.7124999999999995
10
-20.199999999999996
20
-6.5124999999999993
10
-19.999999999999993
20
-6.5124999999999993
0
LWPOLYLINE
5
127
100
AcDbEntity
8
0
100
AcDbPolyline
90
4
70
1
43
0.0
10
-20.650000000000006
20
-6.7124999999999977
10
-20.849999999999994
20
-6.7124999999999995
10
-20.849999999999994
20
-6.5124999999999993
10
-20.649999999999991
20
-6.5124999999999993
0
LWPOLYLINE
5
128
100
AcDbEntity
8
0
100
AcDbPolyline
90
4
70
1
43
0.0
10
-21.300000000000004
20
-6.7124999999999977
10
-21.499999999999996
20
-6.7124999999999995
10
-21.499999999999996
20
-6.5124999999999993
10
-21.299999999999994
20
-6.5124999999999993
0
LWPOLYLINE
5
129
100
AcDbEntity
8
0
100
AcDbPolyline
90
4
70
1
43
0.0
10
-21.950000000000003
20
-6.7124999999999977
10
-22.149999999999995
20
-6.7124999999999995
10
-22.149999999999995
20
-6.5124999999999993
10
-21.949999999999992
20
-6.5124999999999993
0
LWPOLYLINE
5
130
100
AcDbEntity
8
0
100
AcDbPolyline
90
4
70
1
43
0.0
10
-22.600000000000005
20
-6.7124999999999977
10
-22.799999999999994
20
-6.7124999999999995
10
-22.799999999999994
20
-6.5124999999999993
10
-22.599999999999994
20
-6.5124999999999993
0
LWPOLYLINE
5
131
100
AcDbEntity
8
0
100
AcDbPolyline
90
4
70
1
43
0.0
10
-23.250000000000004
20
-6.7124999999999977
10
-23.449999999999992
20
-6.7124999999999995
10
-23.449999999999992
20
-6.5124999999999993
10
-23.249999999999993
20
-6.5124999999999993
0
LWPOLYLINE
5
132
100
AcDbEntity
8
0
100
AcDbPolyline
90
4
70
1
43
0.0
10
-23.900000000000006
20
-6.7124999999999977
10
-24.099999999999994
20
-6.7124999999999995
10
-24.099999999999994
20
-6.5124999999999993
10
-23.899999999999995
20
-6.5124999999999993
0
LWPOLYLINE
5
133
100
AcDbEntity
8
0
100
AcDbPolyline
90
4
70
1
43
0.0
10
-24.550000000000004
20
-6.7124999999999977
10
-24.749999999999996
20
-6.7124999999999995
10
-24.749999999999996
20
-6.5124999999999993
10
-24.549999999999994
20
-6.5124999999999993
0
LWPOLYLINE
5
134
100
AcDbEntity
8
0
100
AcDbPolyline
90
4
70
1
43
0.0
10
-25.200000000000003
20
-6.7124999999999977
10
-25.399999999999995
20
-6.7124999999999995
10
-25.399999999999995
20
-6.5124999999999993
10
-25.199999999999992
20
-6.5124999999999993
0
LWPOLYLINE
5
135
100
AcDbEntity
8
0
100
AcDbPolyline
90
4
70
1
43
0.0
10
-25.850000000000005
20
-6.7124999999999977
10
-26.049999999999994
20
-6.7124999999999995
10
-26.049999999999994
20
-6.5124999999999993
10
-25.849999999999994
20
-6.5124999999999993
0
LWPOLYLINE
5
136
100
AcDbEntity
8
0
100
AcDbPolyline
90
4
70
1
43
0.0
10
-26.500000000000004
20
-6.7124999999999977
10
-26.699999999999996
20
-6.7124999999999995
10
-26.699999999999996
20
-6.5124999999999993
10
-26.499999999999993
20
-6.5124999999999993
0
LWPOLYLINE
5
137
100
AcDbEntity
8
0
100
AcDbPolyline
90
4
70
1
43
0.0
10
-26.699999999999992
20
-1.3124999999999996
10
-26.499999999999993
20
-1.3124999999999996
10
-26.500000000000004
20
-1.512499999999998
10
-26.699999999999992
20
-1.5124999999999995
0
LWPOLYLINE
5
138
100
AcDbEntity
8
0
100
AcDbPolyline
90
4
70
1
43
0.0
10
-26.699999999999992
20
-1.9624999999999995
10
-26.499999999999993
20
-1.9624999999999995
10
-26.500000000000004
20
-2.1624999999999983
10
-26.699999999999992
20
-2.1624999999999996
0
LWPOLYLINE
5
139
100
AcDbEntity
8
0
100
AcDbPolyline
90
4
70
1
43
0.0
10
-26.699999999999992
20
-2.6124999999999994
10
-26.499999999999993
20
-2.6124999999999994
10
-26.500000000000004
20
-2.8124999999999982
10
-26.699999999999992
20
-2.8124999999999996
0
LWPOLYLINE
5
140
100
AcDbEntity
8
0
100
AcDbPolyline
90
4
70
1
43
0.0
10
-26.699999999999992
20
-3.2624999999999997
10
-26.499999999999993
20
-3.2624999999999997
10
-26.500000000000004
20
-3.4624999999999986
10
-26.699999999999992
20
-3.4624999999999999
0
LWPOLYLINE
5
141
100
AcDbEntity
8
0
100
AcDbPolyline
90
4
70
1
43
0.0
10
-26.699999999999992
20
-3.9125000000000001
10
-26.499999999999993
20
-3.9125000000000001
10
-26.500000000000004
20
-4.1124999999999989
10
-26.699999999999992
20
-4.1125000000000007
0
LWPOLYLINE
5
142
100
AcDbEntity
8
0
100
AcDbPolyline
90
4
70
1
43
0.0
10
-26.699999999999992
20
-4.5625
10
-26.499999999999993
20
-4.5625
10
-26.500000000000004
20
-4.7624999999999993
10
-26.699999999999992
20
-4.7625000000000002
0
LWPOLYLINE
5
143
100
AcDbEntity
8
0
100
AcDbPolyline
90
4
70
1
43
0.0
10
-26.699999999999992
20
-5.2124999999999995
10
-26.499999999999993
20
-5.2124999999999995
10
-26.500000000000004
20
-5.4124999999999988
10
-26.699999999999992
20
-5.4125000000000005
0
LWPOLYLINE
5
144
100
AcDbEntity
8
0
100
AcDbPolyline
90
4
70
1
43
0.0
10
-26.699999999999992
20
-5.8624999999999998
10
-26.499999999999993
20
-5.8624999999999998
10
-26.500000000000004
20
-6.0624999999999991
10
-26.699999999999992
20
-6.0625
0
LWPOLYLINE
5
145
100
AcDbEntity
8
0
100
AcDbPolyline
90
4
70
1
43
0.0
10
-23.846000000000007
20
-2.312499999999996
10
-23.846000000000007
20
-5.0624999999999947
10
-25.825999999999997
20
-5.0624999999999947
10
-25.825999999999997
20
-2.312499999999996
0
CIRCLE
5
146
100
AcDbEntity
8
0
100
AcDbCircle
10
-24.386000000000003
20
-5.6794999999999947
30
0
40
0.16749999999999915
210
0
220
0
230
1
0
CIRCLE
5
147
100
AcDbEntity
8
0
100
AcDbCircle
10
-25.286000000000001
20
-5.6794999999999947
30
0
40
0.16749999999999915
210
0
220
0
230
1
0
ENDSEC
0
SECTION
2
OBJECTS
0
DICTIONARY
5
C
100
AcDbDictionary
3
ACAD_GROUP
350
D
3
ACAD_MLINESTYLE
350
17
0
DICTIONARY
5
D
100
AcDbDictionary
0
DICTIONARY
5
1A
330
C
100
AcDbDictionary
0
DICTIONARY
5
17
100
AcDbDictionary
0
ENDSEC
0
EOF
